G04 EAGLE Gerber RS-274X export*
G75*
%MOMM*%
%FSLAX34Y34*%
%LPD*%
%IN*%
%IPPOS*%
%AMOC8*
5,1,8,0,0,1.08239X$1,22.5*%
G01*
%ADD10C,0.254000*%


D10*
X10160Y0D02*
X481130Y0D01*
X481130Y441200D01*
X10160Y441198D01*
X10160Y0D01*
X451460Y182860D02*
X451471Y182599D01*
X451506Y182339D01*
X451562Y182084D01*
X451641Y181834D01*
X451741Y181592D01*
X451862Y181360D01*
X452003Y181139D01*
X452162Y180932D01*
X452339Y180739D01*
X452532Y180562D01*
X452739Y180403D01*
X452960Y180262D01*
X453192Y180141D01*
X453434Y180041D01*
X453684Y179962D01*
X453939Y179906D01*
X454199Y179871D01*
X454460Y179860D01*
X469460Y179860D01*
X469721Y179871D01*
X469981Y179906D01*
X470236Y179962D01*
X470486Y180041D01*
X470728Y180141D01*
X470960Y180262D01*
X471181Y180403D01*
X471388Y180562D01*
X471581Y180739D01*
X471758Y180932D01*
X471917Y181139D01*
X472058Y181360D01*
X472179Y181592D01*
X472279Y181834D01*
X472358Y182084D01*
X472414Y182339D01*
X472449Y182599D01*
X472460Y182860D01*
X472449Y183121D01*
X472414Y183381D01*
X472358Y183636D01*
X472279Y183886D01*
X472179Y184128D01*
X472058Y184360D01*
X471917Y184581D01*
X471758Y184788D01*
X471581Y184981D01*
X471388Y185158D01*
X471181Y185317D01*
X470960Y185458D01*
X470728Y185579D01*
X470486Y185679D01*
X470236Y185758D01*
X469981Y185814D01*
X469721Y185849D01*
X469460Y185860D01*
X454460Y185860D01*
X454199Y185849D01*
X453939Y185814D01*
X453684Y185758D01*
X453434Y185679D01*
X453192Y185579D01*
X452960Y185458D01*
X452739Y185317D01*
X452532Y185158D01*
X452339Y184981D01*
X452162Y184788D01*
X452003Y184581D01*
X451862Y184360D01*
X451741Y184128D01*
X451641Y183886D01*
X451562Y183636D01*
X451506Y183381D01*
X451471Y183121D01*
X451460Y182860D01*
X451460Y269260D02*
X451471Y268999D01*
X451506Y268739D01*
X451562Y268484D01*
X451641Y268234D01*
X451741Y267992D01*
X451862Y267760D01*
X452003Y267539D01*
X452162Y267332D01*
X452339Y267139D01*
X452532Y266962D01*
X452739Y266803D01*
X452960Y266662D01*
X453192Y266541D01*
X453434Y266441D01*
X453684Y266362D01*
X453939Y266306D01*
X454199Y266271D01*
X454460Y266260D01*
X469460Y266260D01*
X469721Y266271D01*
X469981Y266306D01*
X470236Y266362D01*
X470486Y266441D01*
X470728Y266541D01*
X470960Y266662D01*
X471181Y266803D01*
X471388Y266962D01*
X471581Y267139D01*
X471758Y267332D01*
X471917Y267539D01*
X472058Y267760D01*
X472179Y267992D01*
X472279Y268234D01*
X472358Y268484D01*
X472414Y268739D01*
X472449Y268999D01*
X472460Y269260D01*
X472449Y269521D01*
X472414Y269781D01*
X472358Y270036D01*
X472279Y270286D01*
X472179Y270528D01*
X472058Y270760D01*
X471917Y270981D01*
X471758Y271188D01*
X471581Y271381D01*
X471388Y271558D01*
X471181Y271717D01*
X470960Y271858D01*
X470728Y271979D01*
X470486Y272079D01*
X470236Y272158D01*
X469981Y272214D01*
X469721Y272249D01*
X469460Y272260D01*
X454460Y272260D01*
X454199Y272249D01*
X453939Y272214D01*
X453684Y272158D01*
X453434Y272079D01*
X453192Y271979D01*
X452960Y271858D01*
X452739Y271717D01*
X452532Y271558D01*
X452339Y271381D01*
X452162Y271188D01*
X452003Y270981D01*
X451862Y270760D01*
X451741Y270528D01*
X451641Y270286D01*
X451562Y270036D01*
X451506Y269781D01*
X451471Y269521D01*
X451460Y269260D01*
X400360Y182860D02*
X400371Y182599D01*
X400406Y182339D01*
X400462Y182084D01*
X400541Y181834D01*
X400641Y181592D01*
X400762Y181360D01*
X400903Y181139D01*
X401062Y180932D01*
X401239Y180739D01*
X401432Y180562D01*
X401639Y180403D01*
X401860Y180262D01*
X402092Y180141D01*
X402334Y180041D01*
X402584Y179962D01*
X402839Y179906D01*
X403099Y179871D01*
X403360Y179860D01*
X413360Y179860D01*
X413621Y179871D01*
X413881Y179906D01*
X414136Y179962D01*
X414386Y180041D01*
X414628Y180141D01*
X414860Y180262D01*
X415081Y180403D01*
X415288Y180562D01*
X415481Y180739D01*
X415658Y180932D01*
X415817Y181139D01*
X415958Y181360D01*
X416079Y181592D01*
X416179Y181834D01*
X416258Y182084D01*
X416314Y182339D01*
X416349Y182599D01*
X416360Y182860D01*
X416349Y183121D01*
X416314Y183381D01*
X416258Y183636D01*
X416179Y183886D01*
X416079Y184128D01*
X415958Y184360D01*
X415817Y184581D01*
X415658Y184788D01*
X415481Y184981D01*
X415288Y185158D01*
X415081Y185317D01*
X414860Y185458D01*
X414628Y185579D01*
X414386Y185679D01*
X414136Y185758D01*
X413881Y185814D01*
X413621Y185849D01*
X413360Y185860D01*
X403360Y185860D01*
X403099Y185849D01*
X402839Y185814D01*
X402584Y185758D01*
X402334Y185679D01*
X402092Y185579D01*
X401860Y185458D01*
X401639Y185317D01*
X401432Y185158D01*
X401239Y184981D01*
X401062Y184788D01*
X400903Y184581D01*
X400762Y184360D01*
X400641Y184128D01*
X400541Y183886D01*
X400462Y183636D01*
X400406Y183381D01*
X400371Y183121D01*
X400360Y182860D01*
X400360Y269260D02*
X400371Y268999D01*
X400406Y268739D01*
X400462Y268484D01*
X400541Y268234D01*
X400641Y267992D01*
X400762Y267760D01*
X400903Y267539D01*
X401062Y267332D01*
X401239Y267139D01*
X401432Y266962D01*
X401639Y266803D01*
X401860Y266662D01*
X402092Y266541D01*
X402334Y266441D01*
X402584Y266362D01*
X402839Y266306D01*
X403099Y266271D01*
X403360Y266260D01*
X413360Y266260D01*
X413621Y266271D01*
X413881Y266306D01*
X414136Y266362D01*
X414386Y266441D01*
X414628Y266541D01*
X414860Y266662D01*
X415081Y266803D01*
X415288Y266962D01*
X415481Y267139D01*
X415658Y267332D01*
X415817Y267539D01*
X415958Y267760D01*
X416079Y267992D01*
X416179Y268234D01*
X416258Y268484D01*
X416314Y268739D01*
X416349Y268999D01*
X416360Y269260D01*
X416349Y269521D01*
X416314Y269781D01*
X416258Y270036D01*
X416179Y270286D01*
X416079Y270528D01*
X415958Y270760D01*
X415817Y270981D01*
X415658Y271188D01*
X415481Y271381D01*
X415288Y271558D01*
X415081Y271717D01*
X414860Y271858D01*
X414628Y271979D01*
X414386Y272079D01*
X414136Y272158D01*
X413881Y272214D01*
X413621Y272249D01*
X413360Y272260D01*
X403360Y272260D01*
X403099Y272249D01*
X402839Y272214D01*
X402584Y272158D01*
X402334Y272079D01*
X402092Y271979D01*
X401860Y271858D01*
X401639Y271717D01*
X401432Y271558D01*
X401239Y271381D01*
X401062Y271188D01*
X400903Y270981D01*
X400762Y270760D01*
X400641Y270528D01*
X400541Y270286D01*
X400462Y270036D01*
X400406Y269781D01*
X400371Y269521D01*
X400360Y269260D01*
X32639Y406980D02*
X31698Y407054D01*
X30767Y407202D01*
X29850Y407422D01*
X28953Y407713D01*
X28082Y408074D01*
X27242Y408502D01*
X26438Y408995D01*
X25675Y409549D01*
X24958Y410161D01*
X24291Y410828D01*
X23679Y411545D01*
X23125Y412308D01*
X22632Y413112D01*
X22204Y413952D01*
X21843Y414823D01*
X21552Y415720D01*
X21332Y416637D01*
X21184Y417568D01*
X21110Y418509D01*
X21110Y419451D01*
X21184Y420392D01*
X21332Y421323D01*
X21552Y422240D01*
X21843Y423137D01*
X22204Y424008D01*
X22632Y424848D01*
X23125Y425652D01*
X23679Y426415D01*
X24291Y427132D01*
X24958Y427799D01*
X25675Y428411D01*
X26438Y428965D01*
X27242Y429458D01*
X28082Y429886D01*
X28953Y430247D01*
X29850Y430538D01*
X30767Y430759D01*
X31698Y430906D01*
X32639Y430980D01*
X33581Y430980D01*
X34522Y430906D01*
X35453Y430759D01*
X36370Y430538D01*
X37267Y430247D01*
X38138Y429886D01*
X38978Y429458D01*
X39782Y428965D01*
X40545Y428411D01*
X41262Y427799D01*
X41929Y427132D01*
X42541Y426415D01*
X43095Y425652D01*
X43588Y424848D01*
X44016Y424008D01*
X44377Y423137D01*
X44668Y422240D01*
X44889Y421323D01*
X45036Y420392D01*
X45110Y419451D01*
X45110Y418509D01*
X45036Y417568D01*
X44889Y416637D01*
X44668Y415720D01*
X44377Y414823D01*
X44016Y413952D01*
X43588Y413112D01*
X43095Y412308D01*
X42541Y411545D01*
X41929Y410828D01*
X41262Y410161D01*
X40545Y409549D01*
X39782Y408995D01*
X38978Y408502D01*
X38138Y408074D01*
X37267Y407713D01*
X36370Y407422D01*
X35453Y407202D01*
X34522Y407054D01*
X33581Y406980D01*
X32639Y406980D01*
X32639Y10980D02*
X31698Y11054D01*
X30767Y11202D01*
X29850Y11422D01*
X28953Y11713D01*
X28082Y12074D01*
X27242Y12502D01*
X26438Y12995D01*
X25675Y13549D01*
X24958Y14161D01*
X24291Y14828D01*
X23679Y15545D01*
X23125Y16308D01*
X22632Y17112D01*
X22204Y17952D01*
X21843Y18823D01*
X21552Y19720D01*
X21332Y20637D01*
X21184Y21568D01*
X21110Y22509D01*
X21110Y23451D01*
X21184Y24392D01*
X21332Y25323D01*
X21552Y26240D01*
X21843Y27137D01*
X22204Y28008D01*
X22632Y28848D01*
X23125Y29652D01*
X23679Y30415D01*
X24291Y31132D01*
X24958Y31799D01*
X25675Y32411D01*
X26438Y32965D01*
X27242Y33458D01*
X28082Y33886D01*
X28953Y34247D01*
X29850Y34538D01*
X30767Y34759D01*
X31698Y34906D01*
X32639Y34980D01*
X33581Y34980D01*
X34522Y34906D01*
X35453Y34759D01*
X36370Y34538D01*
X37267Y34247D01*
X38138Y33886D01*
X38978Y33458D01*
X39782Y32965D01*
X40545Y32411D01*
X41262Y31799D01*
X41929Y31132D01*
X42541Y30415D01*
X43095Y29652D01*
X43588Y28848D01*
X44016Y28008D01*
X44377Y27137D01*
X44668Y26240D01*
X44889Y25323D01*
X45036Y24392D01*
X45110Y23451D01*
X45110Y22509D01*
X45036Y21568D01*
X44889Y20637D01*
X44668Y19720D01*
X44377Y18823D01*
X44016Y17952D01*
X43588Y17112D01*
X43095Y16308D01*
X42541Y15545D01*
X41929Y14828D01*
X41262Y14161D01*
X40545Y13549D01*
X39782Y12995D01*
X38978Y12502D01*
X38138Y12074D01*
X37267Y11713D01*
X36370Y11422D01*
X35453Y11202D01*
X34522Y11054D01*
X33581Y10980D01*
X32639Y10980D01*
X458639Y10980D02*
X457698Y11054D01*
X456767Y11202D01*
X455850Y11422D01*
X454953Y11713D01*
X454082Y12074D01*
X453242Y12502D01*
X452438Y12995D01*
X451675Y13549D01*
X450958Y14161D01*
X450291Y14828D01*
X449679Y15545D01*
X449125Y16308D01*
X448632Y17112D01*
X448204Y17952D01*
X447843Y18823D01*
X447552Y19720D01*
X447332Y20637D01*
X447184Y21568D01*
X447110Y22509D01*
X447110Y23451D01*
X447184Y24392D01*
X447332Y25323D01*
X447552Y26240D01*
X447843Y27137D01*
X448204Y28008D01*
X448632Y28848D01*
X449125Y29652D01*
X449679Y30415D01*
X450291Y31132D01*
X450958Y31799D01*
X451675Y32411D01*
X452438Y32965D01*
X453242Y33458D01*
X454082Y33886D01*
X454953Y34247D01*
X455850Y34538D01*
X456767Y34759D01*
X457698Y34906D01*
X458639Y34980D01*
X459581Y34980D01*
X460522Y34906D01*
X461453Y34759D01*
X462370Y34538D01*
X463267Y34247D01*
X464138Y33886D01*
X464978Y33458D01*
X465782Y32965D01*
X466545Y32411D01*
X467262Y31799D01*
X467929Y31132D01*
X468541Y30415D01*
X469095Y29652D01*
X469588Y28848D01*
X470016Y28008D01*
X470377Y27137D01*
X470668Y26240D01*
X470889Y25323D01*
X471036Y24392D01*
X471110Y23451D01*
X471110Y22509D01*
X471036Y21568D01*
X470889Y20637D01*
X470668Y19720D01*
X470377Y18823D01*
X470016Y17952D01*
X469588Y17112D01*
X469095Y16308D01*
X468541Y15545D01*
X467929Y14828D01*
X467262Y14161D01*
X466545Y13549D01*
X465782Y12995D01*
X464978Y12502D01*
X464138Y12074D01*
X463267Y11713D01*
X462370Y11422D01*
X461453Y11202D01*
X460522Y11054D01*
X459581Y10980D01*
X458639Y10980D01*
X458639Y406980D02*
X457698Y407054D01*
X456767Y407202D01*
X455850Y407422D01*
X454953Y407713D01*
X454082Y408074D01*
X453242Y408502D01*
X452438Y408995D01*
X451675Y409549D01*
X450958Y410161D01*
X450291Y410828D01*
X449679Y411545D01*
X449125Y412308D01*
X448632Y413112D01*
X448204Y413952D01*
X447843Y414823D01*
X447552Y415720D01*
X447332Y416637D01*
X447184Y417568D01*
X447110Y418509D01*
X447110Y419451D01*
X447184Y420392D01*
X447332Y421323D01*
X447552Y422240D01*
X447843Y423137D01*
X448204Y424008D01*
X448632Y424848D01*
X449125Y425652D01*
X449679Y426415D01*
X450291Y427132D01*
X450958Y427799D01*
X451675Y428411D01*
X452438Y428965D01*
X453242Y429458D01*
X454082Y429886D01*
X454953Y430247D01*
X455850Y430538D01*
X456767Y430759D01*
X457698Y430906D01*
X458639Y430980D01*
X459581Y430980D01*
X460522Y430906D01*
X461453Y430759D01*
X462370Y430538D01*
X463267Y430247D01*
X464138Y429886D01*
X464978Y429458D01*
X465782Y428965D01*
X466545Y428411D01*
X467262Y427799D01*
X467929Y427132D01*
X468541Y426415D01*
X469095Y425652D01*
X469588Y424848D01*
X470016Y424008D01*
X470377Y423137D01*
X470668Y422240D01*
X470889Y421323D01*
X471036Y420392D01*
X471110Y419451D01*
X471110Y418509D01*
X471036Y417568D01*
X470889Y416637D01*
X470668Y415720D01*
X470377Y414823D01*
X470016Y413952D01*
X469588Y413112D01*
X469095Y412308D01*
X468541Y411545D01*
X467929Y410828D01*
X467262Y410161D01*
X466545Y409549D01*
X465782Y408995D01*
X464978Y408502D01*
X464138Y408074D01*
X463267Y407713D01*
X462370Y407422D01*
X461453Y407202D01*
X460522Y407054D01*
X459581Y406980D01*
X458639Y406980D01*
X419735Y115279D02*
X419659Y114701D01*
X419508Y114138D01*
X419285Y113600D01*
X418994Y113095D01*
X418639Y112633D01*
X418227Y112221D01*
X417765Y111866D01*
X417260Y111575D01*
X416722Y111352D01*
X416159Y111201D01*
X415581Y111125D01*
X414999Y111125D01*
X414421Y111201D01*
X413858Y111352D01*
X413320Y111575D01*
X412815Y111866D01*
X412353Y112221D01*
X411941Y112633D01*
X411586Y113095D01*
X411295Y113600D01*
X411072Y114138D01*
X410921Y114701D01*
X410845Y115279D01*
X410845Y115861D01*
X410921Y116439D01*
X411072Y117002D01*
X411295Y117540D01*
X411586Y118045D01*
X411941Y118507D01*
X412353Y118919D01*
X412815Y119274D01*
X413320Y119565D01*
X413858Y119788D01*
X414421Y119939D01*
X414999Y120015D01*
X415581Y120015D01*
X416159Y119939D01*
X416722Y119788D01*
X417260Y119565D01*
X417765Y119274D01*
X418227Y118919D01*
X418639Y118507D01*
X418994Y118045D01*
X419285Y117540D01*
X419508Y117002D01*
X419659Y116439D01*
X419735Y115861D01*
X419735Y115279D01*
X470535Y105119D02*
X470459Y104541D01*
X470308Y103978D01*
X470085Y103440D01*
X469794Y102935D01*
X469439Y102473D01*
X469027Y102061D01*
X468565Y101706D01*
X468060Y101415D01*
X467522Y101192D01*
X466959Y101041D01*
X466381Y100965D01*
X465799Y100965D01*
X465221Y101041D01*
X464658Y101192D01*
X464120Y101415D01*
X463615Y101706D01*
X463153Y102061D01*
X462741Y102473D01*
X462386Y102935D01*
X462095Y103440D01*
X461872Y103978D01*
X461721Y104541D01*
X461645Y105119D01*
X461645Y105701D01*
X461721Y106279D01*
X461872Y106842D01*
X462095Y107380D01*
X462386Y107885D01*
X462741Y108347D01*
X463153Y108759D01*
X463615Y109114D01*
X464120Y109405D01*
X464658Y109628D01*
X465221Y109779D01*
X465799Y109855D01*
X466381Y109855D01*
X466959Y109779D01*
X467522Y109628D01*
X468060Y109405D01*
X468565Y109114D01*
X469027Y108759D01*
X469439Y108347D01*
X469794Y107885D01*
X470085Y107380D01*
X470308Y106842D01*
X470459Y106279D01*
X470535Y105701D01*
X470535Y105119D01*
X470535Y125439D02*
X470459Y124861D01*
X470308Y124298D01*
X470085Y123760D01*
X469794Y123255D01*
X469439Y122793D01*
X469027Y122381D01*
X468565Y122026D01*
X468060Y121735D01*
X467522Y121512D01*
X466959Y121361D01*
X466381Y121285D01*
X465799Y121285D01*
X465221Y121361D01*
X464658Y121512D01*
X464120Y121735D01*
X463615Y122026D01*
X463153Y122381D01*
X462741Y122793D01*
X462386Y123255D01*
X462095Y123760D01*
X461872Y124298D01*
X461721Y124861D01*
X461645Y125439D01*
X461645Y126021D01*
X461721Y126599D01*
X461872Y127162D01*
X462095Y127700D01*
X462386Y128205D01*
X462741Y128667D01*
X463153Y129079D01*
X463615Y129434D01*
X464120Y129725D01*
X464658Y129948D01*
X465221Y130099D01*
X465799Y130175D01*
X466381Y130175D01*
X466959Y130099D01*
X467522Y129948D01*
X468060Y129725D01*
X468565Y129434D01*
X469027Y129079D01*
X469439Y128667D01*
X469794Y128205D01*
X470085Y127700D01*
X470308Y127162D01*
X470459Y126599D01*
X470535Y126021D01*
X470535Y125439D01*
X427164Y140503D02*
X427091Y139573D01*
X426945Y138652D01*
X426727Y137744D01*
X426439Y136857D01*
X426082Y135995D01*
X425658Y135164D01*
X425171Y134368D01*
X424622Y133613D01*
X424016Y132904D01*
X423356Y132244D01*
X422647Y131638D01*
X421892Y131090D01*
X421096Y130602D01*
X420265Y130178D01*
X419403Y129821D01*
X418516Y129533D01*
X417608Y129315D01*
X416687Y129169D01*
X415757Y129096D01*
X414823Y129096D01*
X413893Y129169D01*
X412972Y129315D01*
X412064Y129533D01*
X411177Y129821D01*
X410315Y130178D01*
X409484Y130602D01*
X408688Y131090D01*
X407933Y131638D01*
X407224Y132244D01*
X406564Y132904D01*
X405958Y133613D01*
X405410Y134368D01*
X404922Y135164D01*
X404498Y135995D01*
X404141Y136857D01*
X403853Y137744D01*
X403635Y138652D01*
X403489Y139573D01*
X403416Y140503D01*
X403416Y141437D01*
X403489Y142367D01*
X403635Y143288D01*
X403853Y144196D01*
X404141Y145083D01*
X404498Y145945D01*
X404922Y146776D01*
X405410Y147572D01*
X405958Y148327D01*
X406564Y149036D01*
X407224Y149696D01*
X407933Y150302D01*
X408688Y150851D01*
X409484Y151338D01*
X410315Y151762D01*
X411177Y152119D01*
X412064Y152407D01*
X412972Y152625D01*
X413893Y152771D01*
X414823Y152844D01*
X415757Y152844D01*
X416687Y152771D01*
X417608Y152625D01*
X418516Y152407D01*
X419403Y152119D01*
X420265Y151762D01*
X421096Y151338D01*
X421892Y150851D01*
X422647Y150302D01*
X423356Y149696D01*
X424016Y149036D01*
X424622Y148327D01*
X425171Y147572D01*
X425658Y146776D01*
X426082Y145945D01*
X426439Y145083D01*
X426727Y144196D01*
X426945Y143288D01*
X427091Y142367D01*
X427164Y141437D01*
X427164Y140503D01*
X427164Y89703D02*
X427091Y88773D01*
X426945Y87852D01*
X426727Y86944D01*
X426439Y86057D01*
X426082Y85195D01*
X425658Y84364D01*
X425171Y83568D01*
X424622Y82813D01*
X424016Y82104D01*
X423356Y81444D01*
X422647Y80838D01*
X421892Y80290D01*
X421096Y79802D01*
X420265Y79378D01*
X419403Y79021D01*
X418516Y78733D01*
X417608Y78515D01*
X416687Y78369D01*
X415757Y78296D01*
X414823Y78296D01*
X413893Y78369D01*
X412972Y78515D01*
X412064Y78733D01*
X411177Y79021D01*
X410315Y79378D01*
X409484Y79802D01*
X408688Y80290D01*
X407933Y80838D01*
X407224Y81444D01*
X406564Y82104D01*
X405958Y82813D01*
X405410Y83568D01*
X404922Y84364D01*
X404498Y85195D01*
X404141Y86057D01*
X403853Y86944D01*
X403635Y87852D01*
X403489Y88773D01*
X403416Y89703D01*
X403416Y90637D01*
X403489Y91567D01*
X403635Y92488D01*
X403853Y93396D01*
X404141Y94283D01*
X404498Y95145D01*
X404922Y95976D01*
X405410Y96772D01*
X405958Y97527D01*
X406564Y98236D01*
X407224Y98896D01*
X407933Y99502D01*
X408688Y100051D01*
X409484Y100538D01*
X410315Y100962D01*
X411177Y101319D01*
X412064Y101607D01*
X412972Y101825D01*
X413893Y101971D01*
X414823Y102044D01*
X415757Y102044D01*
X416687Y101971D01*
X417608Y101825D01*
X418516Y101607D01*
X419403Y101319D01*
X420265Y100962D01*
X421096Y100538D01*
X421892Y100051D01*
X422647Y99502D01*
X423356Y98896D01*
X424016Y98236D01*
X424622Y97527D01*
X425171Y96772D01*
X425658Y95976D01*
X426082Y95145D01*
X426439Y94283D01*
X426727Y93396D01*
X426945Y92488D01*
X427091Y91567D01*
X427164Y90637D01*
X427164Y89703D01*
X458914Y89703D02*
X458841Y88773D01*
X458695Y87852D01*
X458477Y86944D01*
X458189Y86057D01*
X457832Y85195D01*
X457408Y84364D01*
X456921Y83568D01*
X456372Y82813D01*
X455766Y82104D01*
X455106Y81444D01*
X454397Y80838D01*
X453642Y80290D01*
X452846Y79802D01*
X452015Y79378D01*
X451153Y79021D01*
X450266Y78733D01*
X449358Y78515D01*
X448437Y78369D01*
X447507Y78296D01*
X446573Y78296D01*
X445643Y78369D01*
X444722Y78515D01*
X443814Y78733D01*
X442927Y79021D01*
X442065Y79378D01*
X441234Y79802D01*
X440438Y80290D01*
X439683Y80838D01*
X438974Y81444D01*
X438314Y82104D01*
X437708Y82813D01*
X437160Y83568D01*
X436672Y84364D01*
X436248Y85195D01*
X435891Y86057D01*
X435603Y86944D01*
X435385Y87852D01*
X435239Y88773D01*
X435166Y89703D01*
X435166Y90637D01*
X435239Y91567D01*
X435385Y92488D01*
X435603Y93396D01*
X435891Y94283D01*
X436248Y95145D01*
X436672Y95976D01*
X437160Y96772D01*
X437708Y97527D01*
X438314Y98236D01*
X438974Y98896D01*
X439683Y99502D01*
X440438Y100051D01*
X441234Y100538D01*
X442065Y100962D01*
X442927Y101319D01*
X443814Y101607D01*
X444722Y101825D01*
X445643Y101971D01*
X446573Y102044D01*
X447507Y102044D01*
X448437Y101971D01*
X449358Y101825D01*
X450266Y101607D01*
X451153Y101319D01*
X452015Y100962D01*
X452846Y100538D01*
X453642Y100051D01*
X454397Y99502D01*
X455106Y98896D01*
X455766Y98236D01*
X456372Y97527D01*
X456921Y96772D01*
X457408Y95976D01*
X457832Y95145D01*
X458189Y94283D01*
X458477Y93396D01*
X458695Y92488D01*
X458841Y91567D01*
X458914Y90637D01*
X458914Y89703D01*
X458914Y140503D02*
X458841Y139573D01*
X458695Y138652D01*
X458477Y137744D01*
X458189Y136857D01*
X457832Y135995D01*
X457408Y135164D01*
X456921Y134368D01*
X456372Y133613D01*
X455766Y132904D01*
X455106Y132244D01*
X454397Y131638D01*
X453642Y131090D01*
X452846Y130602D01*
X452015Y130178D01*
X451153Y129821D01*
X450266Y129533D01*
X449358Y129315D01*
X448437Y129169D01*
X447507Y129096D01*
X446573Y129096D01*
X445643Y129169D01*
X444722Y129315D01*
X443814Y129533D01*
X442927Y129821D01*
X442065Y130178D01*
X441234Y130602D01*
X440438Y131090D01*
X439683Y131638D01*
X438974Y132244D01*
X438314Y132904D01*
X437708Y133613D01*
X437160Y134368D01*
X436672Y135164D01*
X436248Y135995D01*
X435891Y136857D01*
X435603Y137744D01*
X435385Y138652D01*
X435239Y139573D01*
X435166Y140503D01*
X435166Y141437D01*
X435239Y142367D01*
X435385Y143288D01*
X435603Y144196D01*
X435891Y145083D01*
X436248Y145945D01*
X436672Y146776D01*
X437160Y147572D01*
X437708Y148327D01*
X438314Y149036D01*
X438974Y149696D01*
X439683Y150302D01*
X440438Y150851D01*
X441234Y151338D01*
X442065Y151762D01*
X442927Y152119D01*
X443814Y152407D01*
X444722Y152625D01*
X445643Y152771D01*
X446573Y152844D01*
X447507Y152844D01*
X448437Y152771D01*
X449358Y152625D01*
X450266Y152407D01*
X451153Y152119D01*
X452015Y151762D01*
X452846Y151338D01*
X453642Y150851D01*
X454397Y150302D01*
X455106Y149696D01*
X455766Y149036D01*
X456372Y148327D01*
X456921Y147572D01*
X457408Y146776D01*
X457832Y145945D01*
X458189Y145083D01*
X458477Y144196D01*
X458695Y143288D01*
X458841Y142367D01*
X458914Y141437D01*
X458914Y140503D01*
X49281Y174780D02*
X48787Y174715D01*
X48306Y174586D01*
X47846Y174395D01*
X47414Y174146D01*
X47019Y173843D01*
X46667Y173491D01*
X46364Y173096D01*
X46115Y172664D01*
X45924Y172204D01*
X45795Y171723D01*
X45730Y171229D01*
X45730Y170731D01*
X45795Y170237D01*
X45924Y169756D01*
X46115Y169296D01*
X46364Y168864D01*
X46667Y168469D01*
X47019Y168117D01*
X47414Y167814D01*
X47846Y167565D01*
X48306Y167374D01*
X48787Y167245D01*
X49281Y167180D01*
X49779Y167180D01*
X50273Y167245D01*
X50754Y167374D01*
X51214Y167565D01*
X51646Y167814D01*
X52041Y168117D01*
X52393Y168469D01*
X52696Y168864D01*
X52945Y169296D01*
X53136Y169756D01*
X53265Y170237D01*
X53330Y170731D01*
X53330Y171229D01*
X53265Y171723D01*
X53136Y172204D01*
X52945Y172664D01*
X52696Y173096D01*
X52393Y173491D01*
X52041Y173843D01*
X51646Y174146D01*
X51214Y174395D01*
X50754Y174586D01*
X50273Y174715D01*
X49779Y174780D01*
X49281Y174780D01*
X49281Y274780D02*
X48787Y274715D01*
X48306Y274586D01*
X47846Y274395D01*
X47414Y274146D01*
X47019Y273843D01*
X46667Y273491D01*
X46364Y273096D01*
X46115Y272664D01*
X45924Y272204D01*
X45795Y271723D01*
X45730Y271229D01*
X45730Y270731D01*
X45795Y270237D01*
X45924Y269756D01*
X46115Y269296D01*
X46364Y268864D01*
X46667Y268469D01*
X47019Y268117D01*
X47414Y267814D01*
X47846Y267565D01*
X48306Y267374D01*
X48787Y267245D01*
X49281Y267180D01*
X49779Y267180D01*
X50273Y267245D01*
X50754Y267374D01*
X51214Y267565D01*
X51646Y267814D01*
X52041Y268117D01*
X52393Y268469D01*
X52696Y268864D01*
X52945Y269296D01*
X53136Y269756D01*
X53265Y270237D01*
X53330Y270731D01*
X53330Y271229D01*
X53265Y271723D01*
X53136Y272204D01*
X52945Y272664D01*
X52696Y273096D01*
X52393Y273491D01*
X52041Y273843D01*
X51646Y274146D01*
X51214Y274395D01*
X50754Y274586D01*
X50273Y274715D01*
X49779Y274780D01*
X49281Y274780D01*
M02*
