G04 EAGLE Gerber RS-274X export*
G75*
%MOMM*%
%FSLAX34Y34*%
%LPD*%
%INSoldermask Bottom*%
%IPPOS*%
%AMOC8*
5,1,8,0,0,1.08239X$1,22.5*%
G01*
%ADD10R,1.127000X1.227000*%
%ADD11R,1.227000X1.127000*%
%ADD12C,0.195359*%
%ADD13C,2.527000*%
%ADD14R,0.977000X1.027000*%
%ADD15C,1.016000*%
%ADD16C,2.501800*%
%ADD17R,0.447000X0.987000*%
%ADD18R,0.987000X0.447000*%
%ADD19R,2.627000X2.627000*%
%ADD20R,2.132000X1.122000*%
%ADD21R,2.132000X1.121994*%
%ADD22R,2.132000X1.121991*%
%ADD23R,0.431800X0.939800*%
%ADD24R,2.006600X1.727200*%
%ADD25R,0.927000X1.327000*%
%ADD26R,0.827000X0.427000*%
%ADD27R,0.827000X1.127000*%
%ADD28C,1.227000*%
%ADD29C,1.427000*%
%ADD30R,1.027000X0.977000*%
%ADD31R,1.527000X1.127000*%
%ADD32C,0.428259*%
%ADD33R,2.127000X0.827000*%
%ADD34R,2.727000X1.127000*%
%ADD35R,2.727000X1.627000*%
%ADD36R,1.527000X2.827000*%
%ADD37R,1.327000X1.327000*%
%ADD38R,1.227000X2.027000*%
%ADD39C,1.127000*%
%ADD40R,2.540000X0.685800*%
%ADD41C,0.887000*%


D10*
X125857Y62094D03*
X125857Y45094D03*
D11*
X258690Y189738D03*
X241690Y189738D03*
D10*
X121945Y142002D03*
X121945Y125002D03*
D12*
X136952Y74472D02*
X150968Y74472D01*
X136952Y74472D02*
X136952Y76588D01*
X150968Y76588D01*
X150968Y74472D01*
X150968Y76328D02*
X136952Y76328D01*
X136952Y79472D02*
X150968Y79472D01*
X136952Y79472D02*
X136952Y81588D01*
X150968Y81588D01*
X150968Y79472D01*
X150968Y81328D02*
X136952Y81328D01*
X136952Y84472D02*
X150968Y84472D01*
X136952Y84472D02*
X136952Y86588D01*
X150968Y86588D01*
X150968Y84472D01*
X150968Y86328D02*
X136952Y86328D01*
X136952Y89472D02*
X150968Y89472D01*
X136952Y89472D02*
X136952Y91588D01*
X150968Y91588D01*
X150968Y89472D01*
X150968Y91328D02*
X136952Y91328D01*
X136952Y94472D02*
X150968Y94472D01*
X136952Y94472D02*
X136952Y96588D01*
X150968Y96588D01*
X150968Y94472D01*
X150968Y96328D02*
X136952Y96328D01*
X136952Y99472D02*
X150968Y99472D01*
X136952Y99472D02*
X136952Y101588D01*
X150968Y101588D01*
X150968Y99472D01*
X150968Y101328D02*
X136952Y101328D01*
X136952Y104472D02*
X150968Y104472D01*
X136952Y104472D02*
X136952Y106588D01*
X150968Y106588D01*
X150968Y104472D01*
X150968Y106328D02*
X136952Y106328D01*
X136952Y109472D02*
X150968Y109472D01*
X136952Y109472D02*
X136952Y111588D01*
X150968Y111588D01*
X150968Y109472D01*
X150968Y111328D02*
X136952Y111328D01*
X136952Y114472D02*
X150968Y114472D01*
X136952Y114472D02*
X136952Y116588D01*
X150968Y116588D01*
X150968Y114472D01*
X150968Y116328D02*
X136952Y116328D01*
X136952Y119472D02*
X150968Y119472D01*
X136952Y119472D02*
X136952Y121588D01*
X150968Y121588D01*
X150968Y119472D01*
X150968Y121328D02*
X136952Y121328D01*
X136952Y124472D02*
X150968Y124472D01*
X136952Y124472D02*
X136952Y126588D01*
X150968Y126588D01*
X150968Y124472D01*
X150968Y126328D02*
X136952Y126328D01*
X136952Y129472D02*
X150968Y129472D01*
X136952Y129472D02*
X136952Y131588D01*
X150968Y131588D01*
X150968Y129472D01*
X150968Y131328D02*
X136952Y131328D01*
X136952Y134472D02*
X150968Y134472D01*
X136952Y134472D02*
X136952Y136588D01*
X150968Y136588D01*
X150968Y134472D01*
X150968Y136328D02*
X136952Y136328D01*
X136952Y139472D02*
X150968Y139472D01*
X136952Y139472D02*
X136952Y141588D01*
X150968Y141588D01*
X150968Y139472D01*
X150968Y141328D02*
X136952Y141328D01*
X136952Y144472D02*
X150968Y144472D01*
X136952Y144472D02*
X136952Y146588D01*
X150968Y146588D01*
X150968Y144472D01*
X150968Y146328D02*
X136952Y146328D01*
X136952Y149472D02*
X150968Y149472D01*
X136952Y149472D02*
X136952Y151588D01*
X150968Y151588D01*
X150968Y149472D01*
X150968Y151328D02*
X136952Y151328D01*
X250352Y149472D02*
X264368Y149472D01*
X250352Y149472D02*
X250352Y151588D01*
X264368Y151588D01*
X264368Y149472D01*
X264368Y151328D02*
X250352Y151328D01*
X250352Y144472D02*
X264368Y144472D01*
X250352Y144472D02*
X250352Y146588D01*
X264368Y146588D01*
X264368Y144472D01*
X264368Y146328D02*
X250352Y146328D01*
X250352Y139472D02*
X264368Y139472D01*
X250352Y139472D02*
X250352Y141588D01*
X264368Y141588D01*
X264368Y139472D01*
X264368Y141328D02*
X250352Y141328D01*
X250352Y134472D02*
X264368Y134472D01*
X250352Y134472D02*
X250352Y136588D01*
X264368Y136588D01*
X264368Y134472D01*
X264368Y136328D02*
X250352Y136328D01*
X250352Y129472D02*
X264368Y129472D01*
X250352Y129472D02*
X250352Y131588D01*
X264368Y131588D01*
X264368Y129472D01*
X264368Y131328D02*
X250352Y131328D01*
X250352Y124472D02*
X264368Y124472D01*
X250352Y124472D02*
X250352Y126588D01*
X264368Y126588D01*
X264368Y124472D01*
X264368Y126328D02*
X250352Y126328D01*
X250352Y119472D02*
X264368Y119472D01*
X250352Y119472D02*
X250352Y121588D01*
X264368Y121588D01*
X264368Y119472D01*
X264368Y121328D02*
X250352Y121328D01*
X250352Y114472D02*
X264368Y114472D01*
X250352Y114472D02*
X250352Y116588D01*
X264368Y116588D01*
X264368Y114472D01*
X264368Y116328D02*
X250352Y116328D01*
X250352Y109472D02*
X264368Y109472D01*
X250352Y109472D02*
X250352Y111588D01*
X264368Y111588D01*
X264368Y109472D01*
X264368Y111328D02*
X250352Y111328D01*
X250352Y104472D02*
X264368Y104472D01*
X250352Y104472D02*
X250352Y106588D01*
X264368Y106588D01*
X264368Y104472D01*
X264368Y106328D02*
X250352Y106328D01*
X250352Y99472D02*
X264368Y99472D01*
X250352Y99472D02*
X250352Y101588D01*
X264368Y101588D01*
X264368Y99472D01*
X264368Y101328D02*
X250352Y101328D01*
X250352Y94472D02*
X264368Y94472D01*
X250352Y94472D02*
X250352Y96588D01*
X264368Y96588D01*
X264368Y94472D01*
X264368Y96328D02*
X250352Y96328D01*
X250352Y89472D02*
X264368Y89472D01*
X250352Y89472D02*
X250352Y91588D01*
X264368Y91588D01*
X264368Y89472D01*
X264368Y91328D02*
X250352Y91328D01*
X250352Y84472D02*
X264368Y84472D01*
X250352Y84472D02*
X250352Y86588D01*
X264368Y86588D01*
X264368Y84472D01*
X264368Y86328D02*
X250352Y86328D01*
X250352Y79472D02*
X264368Y79472D01*
X250352Y79472D02*
X250352Y81588D01*
X264368Y81588D01*
X264368Y79472D01*
X264368Y81328D02*
X250352Y81328D01*
X250352Y74472D02*
X264368Y74472D01*
X250352Y74472D02*
X250352Y76588D01*
X264368Y76588D01*
X264368Y74472D01*
X264368Y76328D02*
X250352Y76328D01*
X239218Y63338D02*
X239218Y49322D01*
X237102Y49322D01*
X237102Y63338D01*
X239218Y63338D01*
X239218Y51178D02*
X237102Y51178D01*
X237102Y53034D02*
X239218Y53034D01*
X239218Y54890D02*
X237102Y54890D01*
X237102Y56746D02*
X239218Y56746D01*
X239218Y58602D02*
X237102Y58602D01*
X237102Y60458D02*
X239218Y60458D01*
X239218Y62314D02*
X237102Y62314D01*
X234218Y63338D02*
X234218Y49322D01*
X232102Y49322D01*
X232102Y63338D01*
X234218Y63338D01*
X234218Y51178D02*
X232102Y51178D01*
X232102Y53034D02*
X234218Y53034D01*
X234218Y54890D02*
X232102Y54890D01*
X232102Y56746D02*
X234218Y56746D01*
X234218Y58602D02*
X232102Y58602D01*
X232102Y60458D02*
X234218Y60458D01*
X234218Y62314D02*
X232102Y62314D01*
X229218Y63338D02*
X229218Y49322D01*
X227102Y49322D01*
X227102Y63338D01*
X229218Y63338D01*
X229218Y51178D02*
X227102Y51178D01*
X227102Y53034D02*
X229218Y53034D01*
X229218Y54890D02*
X227102Y54890D01*
X227102Y56746D02*
X229218Y56746D01*
X229218Y58602D02*
X227102Y58602D01*
X227102Y60458D02*
X229218Y60458D01*
X229218Y62314D02*
X227102Y62314D01*
X224218Y63338D02*
X224218Y49322D01*
X222102Y49322D01*
X222102Y63338D01*
X224218Y63338D01*
X224218Y51178D02*
X222102Y51178D01*
X222102Y53034D02*
X224218Y53034D01*
X224218Y54890D02*
X222102Y54890D01*
X222102Y56746D02*
X224218Y56746D01*
X224218Y58602D02*
X222102Y58602D01*
X222102Y60458D02*
X224218Y60458D01*
X224218Y62314D02*
X222102Y62314D01*
X219218Y63338D02*
X219218Y49322D01*
X217102Y49322D01*
X217102Y63338D01*
X219218Y63338D01*
X219218Y51178D02*
X217102Y51178D01*
X217102Y53034D02*
X219218Y53034D01*
X219218Y54890D02*
X217102Y54890D01*
X217102Y56746D02*
X219218Y56746D01*
X219218Y58602D02*
X217102Y58602D01*
X217102Y60458D02*
X219218Y60458D01*
X219218Y62314D02*
X217102Y62314D01*
X214218Y63338D02*
X214218Y49322D01*
X212102Y49322D01*
X212102Y63338D01*
X214218Y63338D01*
X214218Y51178D02*
X212102Y51178D01*
X212102Y53034D02*
X214218Y53034D01*
X214218Y54890D02*
X212102Y54890D01*
X212102Y56746D02*
X214218Y56746D01*
X214218Y58602D02*
X212102Y58602D01*
X212102Y60458D02*
X214218Y60458D01*
X214218Y62314D02*
X212102Y62314D01*
X209218Y63338D02*
X209218Y49322D01*
X207102Y49322D01*
X207102Y63338D01*
X209218Y63338D01*
X209218Y51178D02*
X207102Y51178D01*
X207102Y53034D02*
X209218Y53034D01*
X209218Y54890D02*
X207102Y54890D01*
X207102Y56746D02*
X209218Y56746D01*
X209218Y58602D02*
X207102Y58602D01*
X207102Y60458D02*
X209218Y60458D01*
X209218Y62314D02*
X207102Y62314D01*
X204218Y63338D02*
X204218Y49322D01*
X202102Y49322D01*
X202102Y63338D01*
X204218Y63338D01*
X204218Y51178D02*
X202102Y51178D01*
X202102Y53034D02*
X204218Y53034D01*
X204218Y54890D02*
X202102Y54890D01*
X202102Y56746D02*
X204218Y56746D01*
X204218Y58602D02*
X202102Y58602D01*
X202102Y60458D02*
X204218Y60458D01*
X204218Y62314D02*
X202102Y62314D01*
X199218Y63338D02*
X199218Y49322D01*
X197102Y49322D01*
X197102Y63338D01*
X199218Y63338D01*
X199218Y51178D02*
X197102Y51178D01*
X197102Y53034D02*
X199218Y53034D01*
X199218Y54890D02*
X197102Y54890D01*
X197102Y56746D02*
X199218Y56746D01*
X199218Y58602D02*
X197102Y58602D01*
X197102Y60458D02*
X199218Y60458D01*
X199218Y62314D02*
X197102Y62314D01*
X194218Y63338D02*
X194218Y49322D01*
X192102Y49322D01*
X192102Y63338D01*
X194218Y63338D01*
X194218Y51178D02*
X192102Y51178D01*
X192102Y53034D02*
X194218Y53034D01*
X194218Y54890D02*
X192102Y54890D01*
X192102Y56746D02*
X194218Y56746D01*
X194218Y58602D02*
X192102Y58602D01*
X192102Y60458D02*
X194218Y60458D01*
X194218Y62314D02*
X192102Y62314D01*
X189218Y63338D02*
X189218Y49322D01*
X187102Y49322D01*
X187102Y63338D01*
X189218Y63338D01*
X189218Y51178D02*
X187102Y51178D01*
X187102Y53034D02*
X189218Y53034D01*
X189218Y54890D02*
X187102Y54890D01*
X187102Y56746D02*
X189218Y56746D01*
X189218Y58602D02*
X187102Y58602D01*
X187102Y60458D02*
X189218Y60458D01*
X189218Y62314D02*
X187102Y62314D01*
X184218Y63338D02*
X184218Y49322D01*
X182102Y49322D01*
X182102Y63338D01*
X184218Y63338D01*
X184218Y51178D02*
X182102Y51178D01*
X182102Y53034D02*
X184218Y53034D01*
X184218Y54890D02*
X182102Y54890D01*
X182102Y56746D02*
X184218Y56746D01*
X184218Y58602D02*
X182102Y58602D01*
X182102Y60458D02*
X184218Y60458D01*
X184218Y62314D02*
X182102Y62314D01*
X179218Y63338D02*
X179218Y49322D01*
X177102Y49322D01*
X177102Y63338D01*
X179218Y63338D01*
X179218Y51178D02*
X177102Y51178D01*
X177102Y53034D02*
X179218Y53034D01*
X179218Y54890D02*
X177102Y54890D01*
X177102Y56746D02*
X179218Y56746D01*
X179218Y58602D02*
X177102Y58602D01*
X177102Y60458D02*
X179218Y60458D01*
X179218Y62314D02*
X177102Y62314D01*
X174218Y63338D02*
X174218Y49322D01*
X172102Y49322D01*
X172102Y63338D01*
X174218Y63338D01*
X174218Y51178D02*
X172102Y51178D01*
X172102Y53034D02*
X174218Y53034D01*
X174218Y54890D02*
X172102Y54890D01*
X172102Y56746D02*
X174218Y56746D01*
X174218Y58602D02*
X172102Y58602D01*
X172102Y60458D02*
X174218Y60458D01*
X174218Y62314D02*
X172102Y62314D01*
X169218Y63338D02*
X169218Y49322D01*
X167102Y49322D01*
X167102Y63338D01*
X169218Y63338D01*
X169218Y51178D02*
X167102Y51178D01*
X167102Y53034D02*
X169218Y53034D01*
X169218Y54890D02*
X167102Y54890D01*
X167102Y56746D02*
X169218Y56746D01*
X169218Y58602D02*
X167102Y58602D01*
X167102Y60458D02*
X169218Y60458D01*
X169218Y62314D02*
X167102Y62314D01*
X164218Y63338D02*
X164218Y49322D01*
X162102Y49322D01*
X162102Y63338D01*
X164218Y63338D01*
X164218Y51178D02*
X162102Y51178D01*
X162102Y53034D02*
X164218Y53034D01*
X164218Y54890D02*
X162102Y54890D01*
X162102Y56746D02*
X164218Y56746D01*
X164218Y58602D02*
X162102Y58602D01*
X162102Y60458D02*
X164218Y60458D01*
X164218Y62314D02*
X162102Y62314D01*
X164218Y162722D02*
X164218Y176738D01*
X164218Y162722D02*
X162102Y162722D01*
X162102Y176738D01*
X164218Y176738D01*
X164218Y164578D02*
X162102Y164578D01*
X162102Y166434D02*
X164218Y166434D01*
X164218Y168290D02*
X162102Y168290D01*
X162102Y170146D02*
X164218Y170146D01*
X164218Y172002D02*
X162102Y172002D01*
X162102Y173858D02*
X164218Y173858D01*
X164218Y175714D02*
X162102Y175714D01*
X169218Y176738D02*
X169218Y162722D01*
X167102Y162722D01*
X167102Y176738D01*
X169218Y176738D01*
X169218Y164578D02*
X167102Y164578D01*
X167102Y166434D02*
X169218Y166434D01*
X169218Y168290D02*
X167102Y168290D01*
X167102Y170146D02*
X169218Y170146D01*
X169218Y172002D02*
X167102Y172002D01*
X167102Y173858D02*
X169218Y173858D01*
X169218Y175714D02*
X167102Y175714D01*
X174218Y176738D02*
X174218Y162722D01*
X172102Y162722D01*
X172102Y176738D01*
X174218Y176738D01*
X174218Y164578D02*
X172102Y164578D01*
X172102Y166434D02*
X174218Y166434D01*
X174218Y168290D02*
X172102Y168290D01*
X172102Y170146D02*
X174218Y170146D01*
X174218Y172002D02*
X172102Y172002D01*
X172102Y173858D02*
X174218Y173858D01*
X174218Y175714D02*
X172102Y175714D01*
X179218Y176738D02*
X179218Y162722D01*
X177102Y162722D01*
X177102Y176738D01*
X179218Y176738D01*
X179218Y164578D02*
X177102Y164578D01*
X177102Y166434D02*
X179218Y166434D01*
X179218Y168290D02*
X177102Y168290D01*
X177102Y170146D02*
X179218Y170146D01*
X179218Y172002D02*
X177102Y172002D01*
X177102Y173858D02*
X179218Y173858D01*
X179218Y175714D02*
X177102Y175714D01*
X184218Y176738D02*
X184218Y162722D01*
X182102Y162722D01*
X182102Y176738D01*
X184218Y176738D01*
X184218Y164578D02*
X182102Y164578D01*
X182102Y166434D02*
X184218Y166434D01*
X184218Y168290D02*
X182102Y168290D01*
X182102Y170146D02*
X184218Y170146D01*
X184218Y172002D02*
X182102Y172002D01*
X182102Y173858D02*
X184218Y173858D01*
X184218Y175714D02*
X182102Y175714D01*
X189218Y176738D02*
X189218Y162722D01*
X187102Y162722D01*
X187102Y176738D01*
X189218Y176738D01*
X189218Y164578D02*
X187102Y164578D01*
X187102Y166434D02*
X189218Y166434D01*
X189218Y168290D02*
X187102Y168290D01*
X187102Y170146D02*
X189218Y170146D01*
X189218Y172002D02*
X187102Y172002D01*
X187102Y173858D02*
X189218Y173858D01*
X189218Y175714D02*
X187102Y175714D01*
X194218Y176738D02*
X194218Y162722D01*
X192102Y162722D01*
X192102Y176738D01*
X194218Y176738D01*
X194218Y164578D02*
X192102Y164578D01*
X192102Y166434D02*
X194218Y166434D01*
X194218Y168290D02*
X192102Y168290D01*
X192102Y170146D02*
X194218Y170146D01*
X194218Y172002D02*
X192102Y172002D01*
X192102Y173858D02*
X194218Y173858D01*
X194218Y175714D02*
X192102Y175714D01*
X199218Y176738D02*
X199218Y162722D01*
X197102Y162722D01*
X197102Y176738D01*
X199218Y176738D01*
X199218Y164578D02*
X197102Y164578D01*
X197102Y166434D02*
X199218Y166434D01*
X199218Y168290D02*
X197102Y168290D01*
X197102Y170146D02*
X199218Y170146D01*
X199218Y172002D02*
X197102Y172002D01*
X197102Y173858D02*
X199218Y173858D01*
X199218Y175714D02*
X197102Y175714D01*
X204218Y176738D02*
X204218Y162722D01*
X202102Y162722D01*
X202102Y176738D01*
X204218Y176738D01*
X204218Y164578D02*
X202102Y164578D01*
X202102Y166434D02*
X204218Y166434D01*
X204218Y168290D02*
X202102Y168290D01*
X202102Y170146D02*
X204218Y170146D01*
X204218Y172002D02*
X202102Y172002D01*
X202102Y173858D02*
X204218Y173858D01*
X204218Y175714D02*
X202102Y175714D01*
X209218Y176738D02*
X209218Y162722D01*
X207102Y162722D01*
X207102Y176738D01*
X209218Y176738D01*
X209218Y164578D02*
X207102Y164578D01*
X207102Y166434D02*
X209218Y166434D01*
X209218Y168290D02*
X207102Y168290D01*
X207102Y170146D02*
X209218Y170146D01*
X209218Y172002D02*
X207102Y172002D01*
X207102Y173858D02*
X209218Y173858D01*
X209218Y175714D02*
X207102Y175714D01*
X214218Y176738D02*
X214218Y162722D01*
X212102Y162722D01*
X212102Y176738D01*
X214218Y176738D01*
X214218Y164578D02*
X212102Y164578D01*
X212102Y166434D02*
X214218Y166434D01*
X214218Y168290D02*
X212102Y168290D01*
X212102Y170146D02*
X214218Y170146D01*
X214218Y172002D02*
X212102Y172002D01*
X212102Y173858D02*
X214218Y173858D01*
X214218Y175714D02*
X212102Y175714D01*
X219218Y176738D02*
X219218Y162722D01*
X217102Y162722D01*
X217102Y176738D01*
X219218Y176738D01*
X219218Y164578D02*
X217102Y164578D01*
X217102Y166434D02*
X219218Y166434D01*
X219218Y168290D02*
X217102Y168290D01*
X217102Y170146D02*
X219218Y170146D01*
X219218Y172002D02*
X217102Y172002D01*
X217102Y173858D02*
X219218Y173858D01*
X219218Y175714D02*
X217102Y175714D01*
X224218Y176738D02*
X224218Y162722D01*
X222102Y162722D01*
X222102Y176738D01*
X224218Y176738D01*
X224218Y164578D02*
X222102Y164578D01*
X222102Y166434D02*
X224218Y166434D01*
X224218Y168290D02*
X222102Y168290D01*
X222102Y170146D02*
X224218Y170146D01*
X224218Y172002D02*
X222102Y172002D01*
X222102Y173858D02*
X224218Y173858D01*
X224218Y175714D02*
X222102Y175714D01*
X229218Y176738D02*
X229218Y162722D01*
X227102Y162722D01*
X227102Y176738D01*
X229218Y176738D01*
X229218Y164578D02*
X227102Y164578D01*
X227102Y166434D02*
X229218Y166434D01*
X229218Y168290D02*
X227102Y168290D01*
X227102Y170146D02*
X229218Y170146D01*
X229218Y172002D02*
X227102Y172002D01*
X227102Y173858D02*
X229218Y173858D01*
X229218Y175714D02*
X227102Y175714D01*
X234218Y176738D02*
X234218Y162722D01*
X232102Y162722D01*
X232102Y176738D01*
X234218Y176738D01*
X234218Y164578D02*
X232102Y164578D01*
X232102Y166434D02*
X234218Y166434D01*
X234218Y168290D02*
X232102Y168290D01*
X232102Y170146D02*
X234218Y170146D01*
X234218Y172002D02*
X232102Y172002D01*
X232102Y173858D02*
X234218Y173858D01*
X234218Y175714D02*
X232102Y175714D01*
X239218Y176738D02*
X239218Y162722D01*
X237102Y162722D01*
X237102Y176738D01*
X239218Y176738D01*
X239218Y164578D02*
X237102Y164578D01*
X237102Y166434D02*
X239218Y166434D01*
X239218Y168290D02*
X237102Y168290D01*
X237102Y170146D02*
X239218Y170146D01*
X239218Y172002D02*
X237102Y172002D01*
X237102Y173858D02*
X239218Y173858D01*
X239218Y175714D02*
X237102Y175714D01*
D13*
X33110Y418980D03*
X33110Y22980D03*
X459110Y22980D03*
X459110Y418980D03*
D10*
X107569Y78604D03*
X107569Y61604D03*
X281940Y57540D03*
X281940Y74540D03*
D14*
X300186Y97739D03*
X288586Y97739D03*
D10*
X300990Y48650D03*
X300990Y65650D03*
D15*
X415290Y115570D03*
X466090Y105410D03*
X466090Y125730D03*
D16*
X415290Y140970D03*
X415290Y90170D03*
X447040Y90170D03*
X447040Y140970D03*
D17*
X232000Y213060D03*
X225500Y213060D03*
X219000Y213060D03*
X212500Y213060D03*
D18*
X202900Y222660D03*
X202900Y229160D03*
X202900Y235660D03*
X202900Y242160D03*
D17*
X212500Y251760D03*
X219000Y251760D03*
X225500Y251760D03*
X232000Y251760D03*
D18*
X241600Y242160D03*
X241600Y235660D03*
X241600Y229160D03*
X241600Y222660D03*
D19*
X222250Y232410D03*
D20*
X415450Y305120D03*
D21*
X415450Y325120D03*
D22*
X415450Y345120D03*
D23*
X364490Y311150D03*
X359410Y311150D03*
X354330Y311150D03*
X349250Y311150D03*
X349250Y341630D03*
X354330Y341630D03*
X359410Y341630D03*
X364490Y341630D03*
D24*
X356870Y326390D03*
D25*
X350029Y291211D03*
X368029Y291211D03*
X359520Y358140D03*
X341520Y358140D03*
D10*
X383286Y334890D03*
X383286Y317890D03*
D26*
X404260Y256060D03*
X404260Y251060D03*
X404260Y246060D03*
X404260Y241060D03*
X404260Y236060D03*
X404260Y231060D03*
X404260Y221060D03*
X404260Y216060D03*
X404260Y211060D03*
X404260Y206060D03*
X404260Y201060D03*
X404260Y196060D03*
D27*
X417260Y195060D03*
D26*
X417260Y203560D03*
X417260Y208560D03*
X417260Y213560D03*
X417260Y218560D03*
X417260Y223560D03*
X417260Y228560D03*
X417260Y233560D03*
X417260Y238560D03*
X417260Y243560D03*
X417260Y248560D03*
D27*
X417260Y257060D03*
D28*
X413860Y269260D02*
X402860Y269260D01*
X402860Y182860D02*
X413860Y182860D01*
D29*
X455460Y269260D02*
X468460Y269260D01*
X468460Y182860D02*
X455460Y182860D01*
D30*
X381914Y249869D03*
X381914Y238269D03*
X382397Y190161D03*
X382397Y201761D03*
D14*
X331580Y178206D03*
X319980Y178206D03*
X331580Y164541D03*
X319980Y164541D03*
D31*
X314530Y203962D03*
X292530Y213462D03*
X292530Y194462D03*
D30*
X331546Y193412D03*
X331546Y205012D03*
D14*
X280966Y180467D03*
X292566Y180467D03*
X60875Y63246D03*
X72475Y63246D03*
X60875Y76962D03*
X72475Y76962D03*
D32*
X211654Y35244D02*
X211654Y28256D01*
X204666Y28256D01*
X204666Y35244D01*
X211654Y35244D01*
X211654Y32325D02*
X204666Y32325D01*
X194114Y35244D02*
X194114Y28256D01*
X187126Y28256D01*
X187126Y35244D01*
X194114Y35244D01*
X194114Y32325D02*
X187126Y32325D01*
X88464Y35244D02*
X88464Y28256D01*
X81476Y28256D01*
X81476Y35244D01*
X88464Y35244D01*
X88464Y32325D02*
X81476Y32325D01*
X70924Y35244D02*
X70924Y28256D01*
X63936Y28256D01*
X63936Y35244D01*
X70924Y35244D01*
X70924Y32325D02*
X63936Y32325D01*
D14*
X60875Y49403D03*
X72475Y49403D03*
X175980Y31750D03*
X164380Y31750D03*
D33*
X247650Y387900D03*
X247650Y376900D03*
X247650Y365900D03*
X247650Y354900D03*
X247650Y343900D03*
X247650Y332900D03*
X247650Y321900D03*
X247650Y310900D03*
D34*
X242650Y408900D03*
D35*
X242650Y275400D03*
D36*
X120650Y324900D03*
X120650Y373900D03*
D37*
X119650Y294400D03*
D14*
X301540Y320040D03*
X313140Y320040D03*
D30*
X382270Y171002D03*
X382270Y159402D03*
D38*
X368065Y76209D03*
X345065Y39209D03*
X345065Y76209D03*
X368065Y39209D03*
D30*
X327558Y58818D03*
X327558Y70418D03*
X382880Y76209D03*
X382880Y64609D03*
D39*
X27940Y50800D03*
X429260Y421640D03*
D40*
X31730Y165980D03*
X67330Y165980D03*
X31730Y175980D03*
X67330Y175980D03*
X31730Y185980D03*
X67330Y185980D03*
X31730Y195980D03*
X67330Y195980D03*
X31730Y205980D03*
X67330Y205980D03*
X31730Y215980D03*
X67330Y215980D03*
X31730Y225980D03*
X67330Y225980D03*
X31730Y235980D03*
X67330Y235980D03*
X31730Y245980D03*
X67330Y245980D03*
X31730Y255980D03*
X67330Y255980D03*
X31730Y265980D03*
X67330Y265980D03*
X31730Y275980D03*
X67330Y275980D03*
D41*
X49530Y170980D03*
X49530Y270980D03*
M02*
