G04 EAGLE Gerber RS-274X export*
G75*
%MOMM*%
%FSLAX34Y34*%
%LPD*%
%INSolderpaste Bottom*%
%IPPOS*%
%AMOC8*
5,1,8,0,0,1.08239X$1,22.5*%
G01*
%ADD10R,1.000000X1.100000*%
%ADD11R,1.100000X1.000000*%
%ADD12C,0.070000*%
%ADD13R,0.850000X0.900000*%
%ADD14R,0.880000X0.880000*%
%ADD15R,0.320000X0.860000*%
%ADD16R,0.860000X0.320000*%
%ADD17R,2.030000X1.019981*%
%ADD18R,2.030000X1.019988*%
%ADD19R,2.030000X1.019991*%
%ADD20R,2.029991X1.019991*%
%ADD21R,0.304800X0.812800*%
%ADD22R,1.879600X1.600200*%
%ADD23R,0.800000X1.200000*%
%ADD24R,0.700000X0.300000*%
%ADD25R,0.700000X1.000000*%
%ADD26R,0.900000X0.850000*%
%ADD27R,1.400000X1.000000*%
%ADD28C,0.300000*%
%ADD29R,2.000000X0.700000*%
%ADD30R,2.600000X1.000000*%
%ADD31R,2.600000X1.500000*%
%ADD32R,1.400000X2.700000*%
%ADD33R,1.200000X1.200000*%
%ADD34R,1.100000X1.900000*%
%ADD35R,2.413000X0.558800*%


D10*
X125857Y62094D03*
X125857Y45094D03*
D11*
X258690Y189738D03*
X241690Y189738D03*
D10*
X121945Y142002D03*
X121945Y125002D03*
D12*
X136960Y74480D02*
X150960Y74480D01*
X136960Y74480D02*
X136960Y76580D01*
X150960Y76580D01*
X150960Y74480D01*
X150960Y75145D02*
X136960Y75145D01*
X136960Y75810D02*
X150960Y75810D01*
X150960Y76475D02*
X136960Y76475D01*
X136960Y79480D02*
X150960Y79480D01*
X136960Y79480D02*
X136960Y81580D01*
X150960Y81580D01*
X150960Y79480D01*
X150960Y80145D02*
X136960Y80145D01*
X136960Y80810D02*
X150960Y80810D01*
X150960Y81475D02*
X136960Y81475D01*
X136960Y84480D02*
X150960Y84480D01*
X136960Y84480D02*
X136960Y86580D01*
X150960Y86580D01*
X150960Y84480D01*
X150960Y85145D02*
X136960Y85145D01*
X136960Y85810D02*
X150960Y85810D01*
X150960Y86475D02*
X136960Y86475D01*
X136960Y89480D02*
X150960Y89480D01*
X136960Y89480D02*
X136960Y91580D01*
X150960Y91580D01*
X150960Y89480D01*
X150960Y90145D02*
X136960Y90145D01*
X136960Y90810D02*
X150960Y90810D01*
X150960Y91475D02*
X136960Y91475D01*
X136960Y94480D02*
X150960Y94480D01*
X136960Y94480D02*
X136960Y96580D01*
X150960Y96580D01*
X150960Y94480D01*
X150960Y95145D02*
X136960Y95145D01*
X136960Y95810D02*
X150960Y95810D01*
X150960Y96475D02*
X136960Y96475D01*
X136960Y99480D02*
X150960Y99480D01*
X136960Y99480D02*
X136960Y101580D01*
X150960Y101580D01*
X150960Y99480D01*
X150960Y100145D02*
X136960Y100145D01*
X136960Y100810D02*
X150960Y100810D01*
X150960Y101475D02*
X136960Y101475D01*
X136960Y104480D02*
X150960Y104480D01*
X136960Y104480D02*
X136960Y106580D01*
X150960Y106580D01*
X150960Y104480D01*
X150960Y105145D02*
X136960Y105145D01*
X136960Y105810D02*
X150960Y105810D01*
X150960Y106475D02*
X136960Y106475D01*
X136960Y109480D02*
X150960Y109480D01*
X136960Y109480D02*
X136960Y111580D01*
X150960Y111580D01*
X150960Y109480D01*
X150960Y110145D02*
X136960Y110145D01*
X136960Y110810D02*
X150960Y110810D01*
X150960Y111475D02*
X136960Y111475D01*
X136960Y114480D02*
X150960Y114480D01*
X136960Y114480D02*
X136960Y116580D01*
X150960Y116580D01*
X150960Y114480D01*
X150960Y115145D02*
X136960Y115145D01*
X136960Y115810D02*
X150960Y115810D01*
X150960Y116475D02*
X136960Y116475D01*
X136960Y119480D02*
X150960Y119480D01*
X136960Y119480D02*
X136960Y121580D01*
X150960Y121580D01*
X150960Y119480D01*
X150960Y120145D02*
X136960Y120145D01*
X136960Y120810D02*
X150960Y120810D01*
X150960Y121475D02*
X136960Y121475D01*
X136960Y124480D02*
X150960Y124480D01*
X136960Y124480D02*
X136960Y126580D01*
X150960Y126580D01*
X150960Y124480D01*
X150960Y125145D02*
X136960Y125145D01*
X136960Y125810D02*
X150960Y125810D01*
X150960Y126475D02*
X136960Y126475D01*
X136960Y129480D02*
X150960Y129480D01*
X136960Y129480D02*
X136960Y131580D01*
X150960Y131580D01*
X150960Y129480D01*
X150960Y130145D02*
X136960Y130145D01*
X136960Y130810D02*
X150960Y130810D01*
X150960Y131475D02*
X136960Y131475D01*
X136960Y134480D02*
X150960Y134480D01*
X136960Y134480D02*
X136960Y136580D01*
X150960Y136580D01*
X150960Y134480D01*
X150960Y135145D02*
X136960Y135145D01*
X136960Y135810D02*
X150960Y135810D01*
X150960Y136475D02*
X136960Y136475D01*
X136960Y139480D02*
X150960Y139480D01*
X136960Y139480D02*
X136960Y141580D01*
X150960Y141580D01*
X150960Y139480D01*
X150960Y140145D02*
X136960Y140145D01*
X136960Y140810D02*
X150960Y140810D01*
X150960Y141475D02*
X136960Y141475D01*
X136960Y144480D02*
X150960Y144480D01*
X136960Y144480D02*
X136960Y146580D01*
X150960Y146580D01*
X150960Y144480D01*
X150960Y145145D02*
X136960Y145145D01*
X136960Y145810D02*
X150960Y145810D01*
X150960Y146475D02*
X136960Y146475D01*
X136960Y149480D02*
X150960Y149480D01*
X136960Y149480D02*
X136960Y151580D01*
X150960Y151580D01*
X150960Y149480D01*
X150960Y150145D02*
X136960Y150145D01*
X136960Y150810D02*
X150960Y150810D01*
X150960Y151475D02*
X136960Y151475D01*
X250360Y149480D02*
X264360Y149480D01*
X250360Y149480D02*
X250360Y151580D01*
X264360Y151580D01*
X264360Y149480D01*
X264360Y150145D02*
X250360Y150145D01*
X250360Y150810D02*
X264360Y150810D01*
X264360Y151475D02*
X250360Y151475D01*
X250360Y144480D02*
X264360Y144480D01*
X250360Y144480D02*
X250360Y146580D01*
X264360Y146580D01*
X264360Y144480D01*
X264360Y145145D02*
X250360Y145145D01*
X250360Y145810D02*
X264360Y145810D01*
X264360Y146475D02*
X250360Y146475D01*
X250360Y139480D02*
X264360Y139480D01*
X250360Y139480D02*
X250360Y141580D01*
X264360Y141580D01*
X264360Y139480D01*
X264360Y140145D02*
X250360Y140145D01*
X250360Y140810D02*
X264360Y140810D01*
X264360Y141475D02*
X250360Y141475D01*
X250360Y134480D02*
X264360Y134480D01*
X250360Y134480D02*
X250360Y136580D01*
X264360Y136580D01*
X264360Y134480D01*
X264360Y135145D02*
X250360Y135145D01*
X250360Y135810D02*
X264360Y135810D01*
X264360Y136475D02*
X250360Y136475D01*
X250360Y129480D02*
X264360Y129480D01*
X250360Y129480D02*
X250360Y131580D01*
X264360Y131580D01*
X264360Y129480D01*
X264360Y130145D02*
X250360Y130145D01*
X250360Y130810D02*
X264360Y130810D01*
X264360Y131475D02*
X250360Y131475D01*
X250360Y124480D02*
X264360Y124480D01*
X250360Y124480D02*
X250360Y126580D01*
X264360Y126580D01*
X264360Y124480D01*
X264360Y125145D02*
X250360Y125145D01*
X250360Y125810D02*
X264360Y125810D01*
X264360Y126475D02*
X250360Y126475D01*
X250360Y119480D02*
X264360Y119480D01*
X250360Y119480D02*
X250360Y121580D01*
X264360Y121580D01*
X264360Y119480D01*
X264360Y120145D02*
X250360Y120145D01*
X250360Y120810D02*
X264360Y120810D01*
X264360Y121475D02*
X250360Y121475D01*
X250360Y114480D02*
X264360Y114480D01*
X250360Y114480D02*
X250360Y116580D01*
X264360Y116580D01*
X264360Y114480D01*
X264360Y115145D02*
X250360Y115145D01*
X250360Y115810D02*
X264360Y115810D01*
X264360Y116475D02*
X250360Y116475D01*
X250360Y109480D02*
X264360Y109480D01*
X250360Y109480D02*
X250360Y111580D01*
X264360Y111580D01*
X264360Y109480D01*
X264360Y110145D02*
X250360Y110145D01*
X250360Y110810D02*
X264360Y110810D01*
X264360Y111475D02*
X250360Y111475D01*
X250360Y104480D02*
X264360Y104480D01*
X250360Y104480D02*
X250360Y106580D01*
X264360Y106580D01*
X264360Y104480D01*
X264360Y105145D02*
X250360Y105145D01*
X250360Y105810D02*
X264360Y105810D01*
X264360Y106475D02*
X250360Y106475D01*
X250360Y99480D02*
X264360Y99480D01*
X250360Y99480D02*
X250360Y101580D01*
X264360Y101580D01*
X264360Y99480D01*
X264360Y100145D02*
X250360Y100145D01*
X250360Y100810D02*
X264360Y100810D01*
X264360Y101475D02*
X250360Y101475D01*
X250360Y94480D02*
X264360Y94480D01*
X250360Y94480D02*
X250360Y96580D01*
X264360Y96580D01*
X264360Y94480D01*
X264360Y95145D02*
X250360Y95145D01*
X250360Y95810D02*
X264360Y95810D01*
X264360Y96475D02*
X250360Y96475D01*
X250360Y89480D02*
X264360Y89480D01*
X250360Y89480D02*
X250360Y91580D01*
X264360Y91580D01*
X264360Y89480D01*
X264360Y90145D02*
X250360Y90145D01*
X250360Y90810D02*
X264360Y90810D01*
X264360Y91475D02*
X250360Y91475D01*
X250360Y84480D02*
X264360Y84480D01*
X250360Y84480D02*
X250360Y86580D01*
X264360Y86580D01*
X264360Y84480D01*
X264360Y85145D02*
X250360Y85145D01*
X250360Y85810D02*
X264360Y85810D01*
X264360Y86475D02*
X250360Y86475D01*
X250360Y79480D02*
X264360Y79480D01*
X250360Y79480D02*
X250360Y81580D01*
X264360Y81580D01*
X264360Y79480D01*
X264360Y80145D02*
X250360Y80145D01*
X250360Y80810D02*
X264360Y80810D01*
X264360Y81475D02*
X250360Y81475D01*
X250360Y74480D02*
X264360Y74480D01*
X250360Y74480D02*
X250360Y76580D01*
X264360Y76580D01*
X264360Y74480D01*
X264360Y75145D02*
X250360Y75145D01*
X250360Y75810D02*
X264360Y75810D01*
X264360Y76475D02*
X250360Y76475D01*
X239210Y63330D02*
X239210Y49330D01*
X237110Y49330D01*
X237110Y63330D01*
X239210Y63330D01*
X239210Y49995D02*
X237110Y49995D01*
X237110Y50660D02*
X239210Y50660D01*
X239210Y51325D02*
X237110Y51325D01*
X237110Y51990D02*
X239210Y51990D01*
X239210Y52655D02*
X237110Y52655D01*
X237110Y53320D02*
X239210Y53320D01*
X239210Y53985D02*
X237110Y53985D01*
X237110Y54650D02*
X239210Y54650D01*
X239210Y55315D02*
X237110Y55315D01*
X237110Y55980D02*
X239210Y55980D01*
X239210Y56645D02*
X237110Y56645D01*
X237110Y57310D02*
X239210Y57310D01*
X239210Y57975D02*
X237110Y57975D01*
X237110Y58640D02*
X239210Y58640D01*
X239210Y59305D02*
X237110Y59305D01*
X237110Y59970D02*
X239210Y59970D01*
X239210Y60635D02*
X237110Y60635D01*
X237110Y61300D02*
X239210Y61300D01*
X239210Y61965D02*
X237110Y61965D01*
X237110Y62630D02*
X239210Y62630D01*
X239210Y63295D02*
X237110Y63295D01*
X234210Y63330D02*
X234210Y49330D01*
X232110Y49330D01*
X232110Y63330D01*
X234210Y63330D01*
X234210Y49995D02*
X232110Y49995D01*
X232110Y50660D02*
X234210Y50660D01*
X234210Y51325D02*
X232110Y51325D01*
X232110Y51990D02*
X234210Y51990D01*
X234210Y52655D02*
X232110Y52655D01*
X232110Y53320D02*
X234210Y53320D01*
X234210Y53985D02*
X232110Y53985D01*
X232110Y54650D02*
X234210Y54650D01*
X234210Y55315D02*
X232110Y55315D01*
X232110Y55980D02*
X234210Y55980D01*
X234210Y56645D02*
X232110Y56645D01*
X232110Y57310D02*
X234210Y57310D01*
X234210Y57975D02*
X232110Y57975D01*
X232110Y58640D02*
X234210Y58640D01*
X234210Y59305D02*
X232110Y59305D01*
X232110Y59970D02*
X234210Y59970D01*
X234210Y60635D02*
X232110Y60635D01*
X232110Y61300D02*
X234210Y61300D01*
X234210Y61965D02*
X232110Y61965D01*
X232110Y62630D02*
X234210Y62630D01*
X234210Y63295D02*
X232110Y63295D01*
X229210Y63330D02*
X229210Y49330D01*
X227110Y49330D01*
X227110Y63330D01*
X229210Y63330D01*
X229210Y49995D02*
X227110Y49995D01*
X227110Y50660D02*
X229210Y50660D01*
X229210Y51325D02*
X227110Y51325D01*
X227110Y51990D02*
X229210Y51990D01*
X229210Y52655D02*
X227110Y52655D01*
X227110Y53320D02*
X229210Y53320D01*
X229210Y53985D02*
X227110Y53985D01*
X227110Y54650D02*
X229210Y54650D01*
X229210Y55315D02*
X227110Y55315D01*
X227110Y55980D02*
X229210Y55980D01*
X229210Y56645D02*
X227110Y56645D01*
X227110Y57310D02*
X229210Y57310D01*
X229210Y57975D02*
X227110Y57975D01*
X227110Y58640D02*
X229210Y58640D01*
X229210Y59305D02*
X227110Y59305D01*
X227110Y59970D02*
X229210Y59970D01*
X229210Y60635D02*
X227110Y60635D01*
X227110Y61300D02*
X229210Y61300D01*
X229210Y61965D02*
X227110Y61965D01*
X227110Y62630D02*
X229210Y62630D01*
X229210Y63295D02*
X227110Y63295D01*
X224210Y63330D02*
X224210Y49330D01*
X222110Y49330D01*
X222110Y63330D01*
X224210Y63330D01*
X224210Y49995D02*
X222110Y49995D01*
X222110Y50660D02*
X224210Y50660D01*
X224210Y51325D02*
X222110Y51325D01*
X222110Y51990D02*
X224210Y51990D01*
X224210Y52655D02*
X222110Y52655D01*
X222110Y53320D02*
X224210Y53320D01*
X224210Y53985D02*
X222110Y53985D01*
X222110Y54650D02*
X224210Y54650D01*
X224210Y55315D02*
X222110Y55315D01*
X222110Y55980D02*
X224210Y55980D01*
X224210Y56645D02*
X222110Y56645D01*
X222110Y57310D02*
X224210Y57310D01*
X224210Y57975D02*
X222110Y57975D01*
X222110Y58640D02*
X224210Y58640D01*
X224210Y59305D02*
X222110Y59305D01*
X222110Y59970D02*
X224210Y59970D01*
X224210Y60635D02*
X222110Y60635D01*
X222110Y61300D02*
X224210Y61300D01*
X224210Y61965D02*
X222110Y61965D01*
X222110Y62630D02*
X224210Y62630D01*
X224210Y63295D02*
X222110Y63295D01*
X219210Y63330D02*
X219210Y49330D01*
X217110Y49330D01*
X217110Y63330D01*
X219210Y63330D01*
X219210Y49995D02*
X217110Y49995D01*
X217110Y50660D02*
X219210Y50660D01*
X219210Y51325D02*
X217110Y51325D01*
X217110Y51990D02*
X219210Y51990D01*
X219210Y52655D02*
X217110Y52655D01*
X217110Y53320D02*
X219210Y53320D01*
X219210Y53985D02*
X217110Y53985D01*
X217110Y54650D02*
X219210Y54650D01*
X219210Y55315D02*
X217110Y55315D01*
X217110Y55980D02*
X219210Y55980D01*
X219210Y56645D02*
X217110Y56645D01*
X217110Y57310D02*
X219210Y57310D01*
X219210Y57975D02*
X217110Y57975D01*
X217110Y58640D02*
X219210Y58640D01*
X219210Y59305D02*
X217110Y59305D01*
X217110Y59970D02*
X219210Y59970D01*
X219210Y60635D02*
X217110Y60635D01*
X217110Y61300D02*
X219210Y61300D01*
X219210Y61965D02*
X217110Y61965D01*
X217110Y62630D02*
X219210Y62630D01*
X219210Y63295D02*
X217110Y63295D01*
X214210Y63330D02*
X214210Y49330D01*
X212110Y49330D01*
X212110Y63330D01*
X214210Y63330D01*
X214210Y49995D02*
X212110Y49995D01*
X212110Y50660D02*
X214210Y50660D01*
X214210Y51325D02*
X212110Y51325D01*
X212110Y51990D02*
X214210Y51990D01*
X214210Y52655D02*
X212110Y52655D01*
X212110Y53320D02*
X214210Y53320D01*
X214210Y53985D02*
X212110Y53985D01*
X212110Y54650D02*
X214210Y54650D01*
X214210Y55315D02*
X212110Y55315D01*
X212110Y55980D02*
X214210Y55980D01*
X214210Y56645D02*
X212110Y56645D01*
X212110Y57310D02*
X214210Y57310D01*
X214210Y57975D02*
X212110Y57975D01*
X212110Y58640D02*
X214210Y58640D01*
X214210Y59305D02*
X212110Y59305D01*
X212110Y59970D02*
X214210Y59970D01*
X214210Y60635D02*
X212110Y60635D01*
X212110Y61300D02*
X214210Y61300D01*
X214210Y61965D02*
X212110Y61965D01*
X212110Y62630D02*
X214210Y62630D01*
X214210Y63295D02*
X212110Y63295D01*
X209210Y63330D02*
X209210Y49330D01*
X207110Y49330D01*
X207110Y63330D01*
X209210Y63330D01*
X209210Y49995D02*
X207110Y49995D01*
X207110Y50660D02*
X209210Y50660D01*
X209210Y51325D02*
X207110Y51325D01*
X207110Y51990D02*
X209210Y51990D01*
X209210Y52655D02*
X207110Y52655D01*
X207110Y53320D02*
X209210Y53320D01*
X209210Y53985D02*
X207110Y53985D01*
X207110Y54650D02*
X209210Y54650D01*
X209210Y55315D02*
X207110Y55315D01*
X207110Y55980D02*
X209210Y55980D01*
X209210Y56645D02*
X207110Y56645D01*
X207110Y57310D02*
X209210Y57310D01*
X209210Y57975D02*
X207110Y57975D01*
X207110Y58640D02*
X209210Y58640D01*
X209210Y59305D02*
X207110Y59305D01*
X207110Y59970D02*
X209210Y59970D01*
X209210Y60635D02*
X207110Y60635D01*
X207110Y61300D02*
X209210Y61300D01*
X209210Y61965D02*
X207110Y61965D01*
X207110Y62630D02*
X209210Y62630D01*
X209210Y63295D02*
X207110Y63295D01*
X204210Y63330D02*
X204210Y49330D01*
X202110Y49330D01*
X202110Y63330D01*
X204210Y63330D01*
X204210Y49995D02*
X202110Y49995D01*
X202110Y50660D02*
X204210Y50660D01*
X204210Y51325D02*
X202110Y51325D01*
X202110Y51990D02*
X204210Y51990D01*
X204210Y52655D02*
X202110Y52655D01*
X202110Y53320D02*
X204210Y53320D01*
X204210Y53985D02*
X202110Y53985D01*
X202110Y54650D02*
X204210Y54650D01*
X204210Y55315D02*
X202110Y55315D01*
X202110Y55980D02*
X204210Y55980D01*
X204210Y56645D02*
X202110Y56645D01*
X202110Y57310D02*
X204210Y57310D01*
X204210Y57975D02*
X202110Y57975D01*
X202110Y58640D02*
X204210Y58640D01*
X204210Y59305D02*
X202110Y59305D01*
X202110Y59970D02*
X204210Y59970D01*
X204210Y60635D02*
X202110Y60635D01*
X202110Y61300D02*
X204210Y61300D01*
X204210Y61965D02*
X202110Y61965D01*
X202110Y62630D02*
X204210Y62630D01*
X204210Y63295D02*
X202110Y63295D01*
X199210Y63330D02*
X199210Y49330D01*
X197110Y49330D01*
X197110Y63330D01*
X199210Y63330D01*
X199210Y49995D02*
X197110Y49995D01*
X197110Y50660D02*
X199210Y50660D01*
X199210Y51325D02*
X197110Y51325D01*
X197110Y51990D02*
X199210Y51990D01*
X199210Y52655D02*
X197110Y52655D01*
X197110Y53320D02*
X199210Y53320D01*
X199210Y53985D02*
X197110Y53985D01*
X197110Y54650D02*
X199210Y54650D01*
X199210Y55315D02*
X197110Y55315D01*
X197110Y55980D02*
X199210Y55980D01*
X199210Y56645D02*
X197110Y56645D01*
X197110Y57310D02*
X199210Y57310D01*
X199210Y57975D02*
X197110Y57975D01*
X197110Y58640D02*
X199210Y58640D01*
X199210Y59305D02*
X197110Y59305D01*
X197110Y59970D02*
X199210Y59970D01*
X199210Y60635D02*
X197110Y60635D01*
X197110Y61300D02*
X199210Y61300D01*
X199210Y61965D02*
X197110Y61965D01*
X197110Y62630D02*
X199210Y62630D01*
X199210Y63295D02*
X197110Y63295D01*
X194210Y63330D02*
X194210Y49330D01*
X192110Y49330D01*
X192110Y63330D01*
X194210Y63330D01*
X194210Y49995D02*
X192110Y49995D01*
X192110Y50660D02*
X194210Y50660D01*
X194210Y51325D02*
X192110Y51325D01*
X192110Y51990D02*
X194210Y51990D01*
X194210Y52655D02*
X192110Y52655D01*
X192110Y53320D02*
X194210Y53320D01*
X194210Y53985D02*
X192110Y53985D01*
X192110Y54650D02*
X194210Y54650D01*
X194210Y55315D02*
X192110Y55315D01*
X192110Y55980D02*
X194210Y55980D01*
X194210Y56645D02*
X192110Y56645D01*
X192110Y57310D02*
X194210Y57310D01*
X194210Y57975D02*
X192110Y57975D01*
X192110Y58640D02*
X194210Y58640D01*
X194210Y59305D02*
X192110Y59305D01*
X192110Y59970D02*
X194210Y59970D01*
X194210Y60635D02*
X192110Y60635D01*
X192110Y61300D02*
X194210Y61300D01*
X194210Y61965D02*
X192110Y61965D01*
X192110Y62630D02*
X194210Y62630D01*
X194210Y63295D02*
X192110Y63295D01*
X189210Y63330D02*
X189210Y49330D01*
X187110Y49330D01*
X187110Y63330D01*
X189210Y63330D01*
X189210Y49995D02*
X187110Y49995D01*
X187110Y50660D02*
X189210Y50660D01*
X189210Y51325D02*
X187110Y51325D01*
X187110Y51990D02*
X189210Y51990D01*
X189210Y52655D02*
X187110Y52655D01*
X187110Y53320D02*
X189210Y53320D01*
X189210Y53985D02*
X187110Y53985D01*
X187110Y54650D02*
X189210Y54650D01*
X189210Y55315D02*
X187110Y55315D01*
X187110Y55980D02*
X189210Y55980D01*
X189210Y56645D02*
X187110Y56645D01*
X187110Y57310D02*
X189210Y57310D01*
X189210Y57975D02*
X187110Y57975D01*
X187110Y58640D02*
X189210Y58640D01*
X189210Y59305D02*
X187110Y59305D01*
X187110Y59970D02*
X189210Y59970D01*
X189210Y60635D02*
X187110Y60635D01*
X187110Y61300D02*
X189210Y61300D01*
X189210Y61965D02*
X187110Y61965D01*
X187110Y62630D02*
X189210Y62630D01*
X189210Y63295D02*
X187110Y63295D01*
X184210Y63330D02*
X184210Y49330D01*
X182110Y49330D01*
X182110Y63330D01*
X184210Y63330D01*
X184210Y49995D02*
X182110Y49995D01*
X182110Y50660D02*
X184210Y50660D01*
X184210Y51325D02*
X182110Y51325D01*
X182110Y51990D02*
X184210Y51990D01*
X184210Y52655D02*
X182110Y52655D01*
X182110Y53320D02*
X184210Y53320D01*
X184210Y53985D02*
X182110Y53985D01*
X182110Y54650D02*
X184210Y54650D01*
X184210Y55315D02*
X182110Y55315D01*
X182110Y55980D02*
X184210Y55980D01*
X184210Y56645D02*
X182110Y56645D01*
X182110Y57310D02*
X184210Y57310D01*
X184210Y57975D02*
X182110Y57975D01*
X182110Y58640D02*
X184210Y58640D01*
X184210Y59305D02*
X182110Y59305D01*
X182110Y59970D02*
X184210Y59970D01*
X184210Y60635D02*
X182110Y60635D01*
X182110Y61300D02*
X184210Y61300D01*
X184210Y61965D02*
X182110Y61965D01*
X182110Y62630D02*
X184210Y62630D01*
X184210Y63295D02*
X182110Y63295D01*
X179210Y63330D02*
X179210Y49330D01*
X177110Y49330D01*
X177110Y63330D01*
X179210Y63330D01*
X179210Y49995D02*
X177110Y49995D01*
X177110Y50660D02*
X179210Y50660D01*
X179210Y51325D02*
X177110Y51325D01*
X177110Y51990D02*
X179210Y51990D01*
X179210Y52655D02*
X177110Y52655D01*
X177110Y53320D02*
X179210Y53320D01*
X179210Y53985D02*
X177110Y53985D01*
X177110Y54650D02*
X179210Y54650D01*
X179210Y55315D02*
X177110Y55315D01*
X177110Y55980D02*
X179210Y55980D01*
X179210Y56645D02*
X177110Y56645D01*
X177110Y57310D02*
X179210Y57310D01*
X179210Y57975D02*
X177110Y57975D01*
X177110Y58640D02*
X179210Y58640D01*
X179210Y59305D02*
X177110Y59305D01*
X177110Y59970D02*
X179210Y59970D01*
X179210Y60635D02*
X177110Y60635D01*
X177110Y61300D02*
X179210Y61300D01*
X179210Y61965D02*
X177110Y61965D01*
X177110Y62630D02*
X179210Y62630D01*
X179210Y63295D02*
X177110Y63295D01*
X174210Y63330D02*
X174210Y49330D01*
X172110Y49330D01*
X172110Y63330D01*
X174210Y63330D01*
X174210Y49995D02*
X172110Y49995D01*
X172110Y50660D02*
X174210Y50660D01*
X174210Y51325D02*
X172110Y51325D01*
X172110Y51990D02*
X174210Y51990D01*
X174210Y52655D02*
X172110Y52655D01*
X172110Y53320D02*
X174210Y53320D01*
X174210Y53985D02*
X172110Y53985D01*
X172110Y54650D02*
X174210Y54650D01*
X174210Y55315D02*
X172110Y55315D01*
X172110Y55980D02*
X174210Y55980D01*
X174210Y56645D02*
X172110Y56645D01*
X172110Y57310D02*
X174210Y57310D01*
X174210Y57975D02*
X172110Y57975D01*
X172110Y58640D02*
X174210Y58640D01*
X174210Y59305D02*
X172110Y59305D01*
X172110Y59970D02*
X174210Y59970D01*
X174210Y60635D02*
X172110Y60635D01*
X172110Y61300D02*
X174210Y61300D01*
X174210Y61965D02*
X172110Y61965D01*
X172110Y62630D02*
X174210Y62630D01*
X174210Y63295D02*
X172110Y63295D01*
X169210Y63330D02*
X169210Y49330D01*
X167110Y49330D01*
X167110Y63330D01*
X169210Y63330D01*
X169210Y49995D02*
X167110Y49995D01*
X167110Y50660D02*
X169210Y50660D01*
X169210Y51325D02*
X167110Y51325D01*
X167110Y51990D02*
X169210Y51990D01*
X169210Y52655D02*
X167110Y52655D01*
X167110Y53320D02*
X169210Y53320D01*
X169210Y53985D02*
X167110Y53985D01*
X167110Y54650D02*
X169210Y54650D01*
X169210Y55315D02*
X167110Y55315D01*
X167110Y55980D02*
X169210Y55980D01*
X169210Y56645D02*
X167110Y56645D01*
X167110Y57310D02*
X169210Y57310D01*
X169210Y57975D02*
X167110Y57975D01*
X167110Y58640D02*
X169210Y58640D01*
X169210Y59305D02*
X167110Y59305D01*
X167110Y59970D02*
X169210Y59970D01*
X169210Y60635D02*
X167110Y60635D01*
X167110Y61300D02*
X169210Y61300D01*
X169210Y61965D02*
X167110Y61965D01*
X167110Y62630D02*
X169210Y62630D01*
X169210Y63295D02*
X167110Y63295D01*
X164210Y63330D02*
X164210Y49330D01*
X162110Y49330D01*
X162110Y63330D01*
X164210Y63330D01*
X164210Y49995D02*
X162110Y49995D01*
X162110Y50660D02*
X164210Y50660D01*
X164210Y51325D02*
X162110Y51325D01*
X162110Y51990D02*
X164210Y51990D01*
X164210Y52655D02*
X162110Y52655D01*
X162110Y53320D02*
X164210Y53320D01*
X164210Y53985D02*
X162110Y53985D01*
X162110Y54650D02*
X164210Y54650D01*
X164210Y55315D02*
X162110Y55315D01*
X162110Y55980D02*
X164210Y55980D01*
X164210Y56645D02*
X162110Y56645D01*
X162110Y57310D02*
X164210Y57310D01*
X164210Y57975D02*
X162110Y57975D01*
X162110Y58640D02*
X164210Y58640D01*
X164210Y59305D02*
X162110Y59305D01*
X162110Y59970D02*
X164210Y59970D01*
X164210Y60635D02*
X162110Y60635D01*
X162110Y61300D02*
X164210Y61300D01*
X164210Y61965D02*
X162110Y61965D01*
X162110Y62630D02*
X164210Y62630D01*
X164210Y63295D02*
X162110Y63295D01*
X164210Y162730D02*
X164210Y176730D01*
X164210Y162730D02*
X162110Y162730D01*
X162110Y176730D01*
X164210Y176730D01*
X164210Y163395D02*
X162110Y163395D01*
X162110Y164060D02*
X164210Y164060D01*
X164210Y164725D02*
X162110Y164725D01*
X162110Y165390D02*
X164210Y165390D01*
X164210Y166055D02*
X162110Y166055D01*
X162110Y166720D02*
X164210Y166720D01*
X164210Y167385D02*
X162110Y167385D01*
X162110Y168050D02*
X164210Y168050D01*
X164210Y168715D02*
X162110Y168715D01*
X162110Y169380D02*
X164210Y169380D01*
X164210Y170045D02*
X162110Y170045D01*
X162110Y170710D02*
X164210Y170710D01*
X164210Y171375D02*
X162110Y171375D01*
X162110Y172040D02*
X164210Y172040D01*
X164210Y172705D02*
X162110Y172705D01*
X162110Y173370D02*
X164210Y173370D01*
X164210Y174035D02*
X162110Y174035D01*
X162110Y174700D02*
X164210Y174700D01*
X164210Y175365D02*
X162110Y175365D01*
X162110Y176030D02*
X164210Y176030D01*
X164210Y176695D02*
X162110Y176695D01*
X169210Y176730D02*
X169210Y162730D01*
X167110Y162730D01*
X167110Y176730D01*
X169210Y176730D01*
X169210Y163395D02*
X167110Y163395D01*
X167110Y164060D02*
X169210Y164060D01*
X169210Y164725D02*
X167110Y164725D01*
X167110Y165390D02*
X169210Y165390D01*
X169210Y166055D02*
X167110Y166055D01*
X167110Y166720D02*
X169210Y166720D01*
X169210Y167385D02*
X167110Y167385D01*
X167110Y168050D02*
X169210Y168050D01*
X169210Y168715D02*
X167110Y168715D01*
X167110Y169380D02*
X169210Y169380D01*
X169210Y170045D02*
X167110Y170045D01*
X167110Y170710D02*
X169210Y170710D01*
X169210Y171375D02*
X167110Y171375D01*
X167110Y172040D02*
X169210Y172040D01*
X169210Y172705D02*
X167110Y172705D01*
X167110Y173370D02*
X169210Y173370D01*
X169210Y174035D02*
X167110Y174035D01*
X167110Y174700D02*
X169210Y174700D01*
X169210Y175365D02*
X167110Y175365D01*
X167110Y176030D02*
X169210Y176030D01*
X169210Y176695D02*
X167110Y176695D01*
X174210Y176730D02*
X174210Y162730D01*
X172110Y162730D01*
X172110Y176730D01*
X174210Y176730D01*
X174210Y163395D02*
X172110Y163395D01*
X172110Y164060D02*
X174210Y164060D01*
X174210Y164725D02*
X172110Y164725D01*
X172110Y165390D02*
X174210Y165390D01*
X174210Y166055D02*
X172110Y166055D01*
X172110Y166720D02*
X174210Y166720D01*
X174210Y167385D02*
X172110Y167385D01*
X172110Y168050D02*
X174210Y168050D01*
X174210Y168715D02*
X172110Y168715D01*
X172110Y169380D02*
X174210Y169380D01*
X174210Y170045D02*
X172110Y170045D01*
X172110Y170710D02*
X174210Y170710D01*
X174210Y171375D02*
X172110Y171375D01*
X172110Y172040D02*
X174210Y172040D01*
X174210Y172705D02*
X172110Y172705D01*
X172110Y173370D02*
X174210Y173370D01*
X174210Y174035D02*
X172110Y174035D01*
X172110Y174700D02*
X174210Y174700D01*
X174210Y175365D02*
X172110Y175365D01*
X172110Y176030D02*
X174210Y176030D01*
X174210Y176695D02*
X172110Y176695D01*
X179210Y176730D02*
X179210Y162730D01*
X177110Y162730D01*
X177110Y176730D01*
X179210Y176730D01*
X179210Y163395D02*
X177110Y163395D01*
X177110Y164060D02*
X179210Y164060D01*
X179210Y164725D02*
X177110Y164725D01*
X177110Y165390D02*
X179210Y165390D01*
X179210Y166055D02*
X177110Y166055D01*
X177110Y166720D02*
X179210Y166720D01*
X179210Y167385D02*
X177110Y167385D01*
X177110Y168050D02*
X179210Y168050D01*
X179210Y168715D02*
X177110Y168715D01*
X177110Y169380D02*
X179210Y169380D01*
X179210Y170045D02*
X177110Y170045D01*
X177110Y170710D02*
X179210Y170710D01*
X179210Y171375D02*
X177110Y171375D01*
X177110Y172040D02*
X179210Y172040D01*
X179210Y172705D02*
X177110Y172705D01*
X177110Y173370D02*
X179210Y173370D01*
X179210Y174035D02*
X177110Y174035D01*
X177110Y174700D02*
X179210Y174700D01*
X179210Y175365D02*
X177110Y175365D01*
X177110Y176030D02*
X179210Y176030D01*
X179210Y176695D02*
X177110Y176695D01*
X184210Y176730D02*
X184210Y162730D01*
X182110Y162730D01*
X182110Y176730D01*
X184210Y176730D01*
X184210Y163395D02*
X182110Y163395D01*
X182110Y164060D02*
X184210Y164060D01*
X184210Y164725D02*
X182110Y164725D01*
X182110Y165390D02*
X184210Y165390D01*
X184210Y166055D02*
X182110Y166055D01*
X182110Y166720D02*
X184210Y166720D01*
X184210Y167385D02*
X182110Y167385D01*
X182110Y168050D02*
X184210Y168050D01*
X184210Y168715D02*
X182110Y168715D01*
X182110Y169380D02*
X184210Y169380D01*
X184210Y170045D02*
X182110Y170045D01*
X182110Y170710D02*
X184210Y170710D01*
X184210Y171375D02*
X182110Y171375D01*
X182110Y172040D02*
X184210Y172040D01*
X184210Y172705D02*
X182110Y172705D01*
X182110Y173370D02*
X184210Y173370D01*
X184210Y174035D02*
X182110Y174035D01*
X182110Y174700D02*
X184210Y174700D01*
X184210Y175365D02*
X182110Y175365D01*
X182110Y176030D02*
X184210Y176030D01*
X184210Y176695D02*
X182110Y176695D01*
X189210Y176730D02*
X189210Y162730D01*
X187110Y162730D01*
X187110Y176730D01*
X189210Y176730D01*
X189210Y163395D02*
X187110Y163395D01*
X187110Y164060D02*
X189210Y164060D01*
X189210Y164725D02*
X187110Y164725D01*
X187110Y165390D02*
X189210Y165390D01*
X189210Y166055D02*
X187110Y166055D01*
X187110Y166720D02*
X189210Y166720D01*
X189210Y167385D02*
X187110Y167385D01*
X187110Y168050D02*
X189210Y168050D01*
X189210Y168715D02*
X187110Y168715D01*
X187110Y169380D02*
X189210Y169380D01*
X189210Y170045D02*
X187110Y170045D01*
X187110Y170710D02*
X189210Y170710D01*
X189210Y171375D02*
X187110Y171375D01*
X187110Y172040D02*
X189210Y172040D01*
X189210Y172705D02*
X187110Y172705D01*
X187110Y173370D02*
X189210Y173370D01*
X189210Y174035D02*
X187110Y174035D01*
X187110Y174700D02*
X189210Y174700D01*
X189210Y175365D02*
X187110Y175365D01*
X187110Y176030D02*
X189210Y176030D01*
X189210Y176695D02*
X187110Y176695D01*
X194210Y176730D02*
X194210Y162730D01*
X192110Y162730D01*
X192110Y176730D01*
X194210Y176730D01*
X194210Y163395D02*
X192110Y163395D01*
X192110Y164060D02*
X194210Y164060D01*
X194210Y164725D02*
X192110Y164725D01*
X192110Y165390D02*
X194210Y165390D01*
X194210Y166055D02*
X192110Y166055D01*
X192110Y166720D02*
X194210Y166720D01*
X194210Y167385D02*
X192110Y167385D01*
X192110Y168050D02*
X194210Y168050D01*
X194210Y168715D02*
X192110Y168715D01*
X192110Y169380D02*
X194210Y169380D01*
X194210Y170045D02*
X192110Y170045D01*
X192110Y170710D02*
X194210Y170710D01*
X194210Y171375D02*
X192110Y171375D01*
X192110Y172040D02*
X194210Y172040D01*
X194210Y172705D02*
X192110Y172705D01*
X192110Y173370D02*
X194210Y173370D01*
X194210Y174035D02*
X192110Y174035D01*
X192110Y174700D02*
X194210Y174700D01*
X194210Y175365D02*
X192110Y175365D01*
X192110Y176030D02*
X194210Y176030D01*
X194210Y176695D02*
X192110Y176695D01*
X199210Y176730D02*
X199210Y162730D01*
X197110Y162730D01*
X197110Y176730D01*
X199210Y176730D01*
X199210Y163395D02*
X197110Y163395D01*
X197110Y164060D02*
X199210Y164060D01*
X199210Y164725D02*
X197110Y164725D01*
X197110Y165390D02*
X199210Y165390D01*
X199210Y166055D02*
X197110Y166055D01*
X197110Y166720D02*
X199210Y166720D01*
X199210Y167385D02*
X197110Y167385D01*
X197110Y168050D02*
X199210Y168050D01*
X199210Y168715D02*
X197110Y168715D01*
X197110Y169380D02*
X199210Y169380D01*
X199210Y170045D02*
X197110Y170045D01*
X197110Y170710D02*
X199210Y170710D01*
X199210Y171375D02*
X197110Y171375D01*
X197110Y172040D02*
X199210Y172040D01*
X199210Y172705D02*
X197110Y172705D01*
X197110Y173370D02*
X199210Y173370D01*
X199210Y174035D02*
X197110Y174035D01*
X197110Y174700D02*
X199210Y174700D01*
X199210Y175365D02*
X197110Y175365D01*
X197110Y176030D02*
X199210Y176030D01*
X199210Y176695D02*
X197110Y176695D01*
X204210Y176730D02*
X204210Y162730D01*
X202110Y162730D01*
X202110Y176730D01*
X204210Y176730D01*
X204210Y163395D02*
X202110Y163395D01*
X202110Y164060D02*
X204210Y164060D01*
X204210Y164725D02*
X202110Y164725D01*
X202110Y165390D02*
X204210Y165390D01*
X204210Y166055D02*
X202110Y166055D01*
X202110Y166720D02*
X204210Y166720D01*
X204210Y167385D02*
X202110Y167385D01*
X202110Y168050D02*
X204210Y168050D01*
X204210Y168715D02*
X202110Y168715D01*
X202110Y169380D02*
X204210Y169380D01*
X204210Y170045D02*
X202110Y170045D01*
X202110Y170710D02*
X204210Y170710D01*
X204210Y171375D02*
X202110Y171375D01*
X202110Y172040D02*
X204210Y172040D01*
X204210Y172705D02*
X202110Y172705D01*
X202110Y173370D02*
X204210Y173370D01*
X204210Y174035D02*
X202110Y174035D01*
X202110Y174700D02*
X204210Y174700D01*
X204210Y175365D02*
X202110Y175365D01*
X202110Y176030D02*
X204210Y176030D01*
X204210Y176695D02*
X202110Y176695D01*
X209210Y176730D02*
X209210Y162730D01*
X207110Y162730D01*
X207110Y176730D01*
X209210Y176730D01*
X209210Y163395D02*
X207110Y163395D01*
X207110Y164060D02*
X209210Y164060D01*
X209210Y164725D02*
X207110Y164725D01*
X207110Y165390D02*
X209210Y165390D01*
X209210Y166055D02*
X207110Y166055D01*
X207110Y166720D02*
X209210Y166720D01*
X209210Y167385D02*
X207110Y167385D01*
X207110Y168050D02*
X209210Y168050D01*
X209210Y168715D02*
X207110Y168715D01*
X207110Y169380D02*
X209210Y169380D01*
X209210Y170045D02*
X207110Y170045D01*
X207110Y170710D02*
X209210Y170710D01*
X209210Y171375D02*
X207110Y171375D01*
X207110Y172040D02*
X209210Y172040D01*
X209210Y172705D02*
X207110Y172705D01*
X207110Y173370D02*
X209210Y173370D01*
X209210Y174035D02*
X207110Y174035D01*
X207110Y174700D02*
X209210Y174700D01*
X209210Y175365D02*
X207110Y175365D01*
X207110Y176030D02*
X209210Y176030D01*
X209210Y176695D02*
X207110Y176695D01*
X214210Y176730D02*
X214210Y162730D01*
X212110Y162730D01*
X212110Y176730D01*
X214210Y176730D01*
X214210Y163395D02*
X212110Y163395D01*
X212110Y164060D02*
X214210Y164060D01*
X214210Y164725D02*
X212110Y164725D01*
X212110Y165390D02*
X214210Y165390D01*
X214210Y166055D02*
X212110Y166055D01*
X212110Y166720D02*
X214210Y166720D01*
X214210Y167385D02*
X212110Y167385D01*
X212110Y168050D02*
X214210Y168050D01*
X214210Y168715D02*
X212110Y168715D01*
X212110Y169380D02*
X214210Y169380D01*
X214210Y170045D02*
X212110Y170045D01*
X212110Y170710D02*
X214210Y170710D01*
X214210Y171375D02*
X212110Y171375D01*
X212110Y172040D02*
X214210Y172040D01*
X214210Y172705D02*
X212110Y172705D01*
X212110Y173370D02*
X214210Y173370D01*
X214210Y174035D02*
X212110Y174035D01*
X212110Y174700D02*
X214210Y174700D01*
X214210Y175365D02*
X212110Y175365D01*
X212110Y176030D02*
X214210Y176030D01*
X214210Y176695D02*
X212110Y176695D01*
X219210Y176730D02*
X219210Y162730D01*
X217110Y162730D01*
X217110Y176730D01*
X219210Y176730D01*
X219210Y163395D02*
X217110Y163395D01*
X217110Y164060D02*
X219210Y164060D01*
X219210Y164725D02*
X217110Y164725D01*
X217110Y165390D02*
X219210Y165390D01*
X219210Y166055D02*
X217110Y166055D01*
X217110Y166720D02*
X219210Y166720D01*
X219210Y167385D02*
X217110Y167385D01*
X217110Y168050D02*
X219210Y168050D01*
X219210Y168715D02*
X217110Y168715D01*
X217110Y169380D02*
X219210Y169380D01*
X219210Y170045D02*
X217110Y170045D01*
X217110Y170710D02*
X219210Y170710D01*
X219210Y171375D02*
X217110Y171375D01*
X217110Y172040D02*
X219210Y172040D01*
X219210Y172705D02*
X217110Y172705D01*
X217110Y173370D02*
X219210Y173370D01*
X219210Y174035D02*
X217110Y174035D01*
X217110Y174700D02*
X219210Y174700D01*
X219210Y175365D02*
X217110Y175365D01*
X217110Y176030D02*
X219210Y176030D01*
X219210Y176695D02*
X217110Y176695D01*
X224210Y176730D02*
X224210Y162730D01*
X222110Y162730D01*
X222110Y176730D01*
X224210Y176730D01*
X224210Y163395D02*
X222110Y163395D01*
X222110Y164060D02*
X224210Y164060D01*
X224210Y164725D02*
X222110Y164725D01*
X222110Y165390D02*
X224210Y165390D01*
X224210Y166055D02*
X222110Y166055D01*
X222110Y166720D02*
X224210Y166720D01*
X224210Y167385D02*
X222110Y167385D01*
X222110Y168050D02*
X224210Y168050D01*
X224210Y168715D02*
X222110Y168715D01*
X222110Y169380D02*
X224210Y169380D01*
X224210Y170045D02*
X222110Y170045D01*
X222110Y170710D02*
X224210Y170710D01*
X224210Y171375D02*
X222110Y171375D01*
X222110Y172040D02*
X224210Y172040D01*
X224210Y172705D02*
X222110Y172705D01*
X222110Y173370D02*
X224210Y173370D01*
X224210Y174035D02*
X222110Y174035D01*
X222110Y174700D02*
X224210Y174700D01*
X224210Y175365D02*
X222110Y175365D01*
X222110Y176030D02*
X224210Y176030D01*
X224210Y176695D02*
X222110Y176695D01*
X229210Y176730D02*
X229210Y162730D01*
X227110Y162730D01*
X227110Y176730D01*
X229210Y176730D01*
X229210Y163395D02*
X227110Y163395D01*
X227110Y164060D02*
X229210Y164060D01*
X229210Y164725D02*
X227110Y164725D01*
X227110Y165390D02*
X229210Y165390D01*
X229210Y166055D02*
X227110Y166055D01*
X227110Y166720D02*
X229210Y166720D01*
X229210Y167385D02*
X227110Y167385D01*
X227110Y168050D02*
X229210Y168050D01*
X229210Y168715D02*
X227110Y168715D01*
X227110Y169380D02*
X229210Y169380D01*
X229210Y170045D02*
X227110Y170045D01*
X227110Y170710D02*
X229210Y170710D01*
X229210Y171375D02*
X227110Y171375D01*
X227110Y172040D02*
X229210Y172040D01*
X229210Y172705D02*
X227110Y172705D01*
X227110Y173370D02*
X229210Y173370D01*
X229210Y174035D02*
X227110Y174035D01*
X227110Y174700D02*
X229210Y174700D01*
X229210Y175365D02*
X227110Y175365D01*
X227110Y176030D02*
X229210Y176030D01*
X229210Y176695D02*
X227110Y176695D01*
X234210Y176730D02*
X234210Y162730D01*
X232110Y162730D01*
X232110Y176730D01*
X234210Y176730D01*
X234210Y163395D02*
X232110Y163395D01*
X232110Y164060D02*
X234210Y164060D01*
X234210Y164725D02*
X232110Y164725D01*
X232110Y165390D02*
X234210Y165390D01*
X234210Y166055D02*
X232110Y166055D01*
X232110Y166720D02*
X234210Y166720D01*
X234210Y167385D02*
X232110Y167385D01*
X232110Y168050D02*
X234210Y168050D01*
X234210Y168715D02*
X232110Y168715D01*
X232110Y169380D02*
X234210Y169380D01*
X234210Y170045D02*
X232110Y170045D01*
X232110Y170710D02*
X234210Y170710D01*
X234210Y171375D02*
X232110Y171375D01*
X232110Y172040D02*
X234210Y172040D01*
X234210Y172705D02*
X232110Y172705D01*
X232110Y173370D02*
X234210Y173370D01*
X234210Y174035D02*
X232110Y174035D01*
X232110Y174700D02*
X234210Y174700D01*
X234210Y175365D02*
X232110Y175365D01*
X232110Y176030D02*
X234210Y176030D01*
X234210Y176695D02*
X232110Y176695D01*
X239210Y176730D02*
X239210Y162730D01*
X237110Y162730D01*
X237110Y176730D01*
X239210Y176730D01*
X239210Y163395D02*
X237110Y163395D01*
X237110Y164060D02*
X239210Y164060D01*
X239210Y164725D02*
X237110Y164725D01*
X237110Y165390D02*
X239210Y165390D01*
X239210Y166055D02*
X237110Y166055D01*
X237110Y166720D02*
X239210Y166720D01*
X239210Y167385D02*
X237110Y167385D01*
X237110Y168050D02*
X239210Y168050D01*
X239210Y168715D02*
X237110Y168715D01*
X237110Y169380D02*
X239210Y169380D01*
X239210Y170045D02*
X237110Y170045D01*
X237110Y170710D02*
X239210Y170710D01*
X239210Y171375D02*
X237110Y171375D01*
X237110Y172040D02*
X239210Y172040D01*
X239210Y172705D02*
X237110Y172705D01*
X237110Y173370D02*
X239210Y173370D01*
X239210Y174035D02*
X237110Y174035D01*
X237110Y174700D02*
X239210Y174700D01*
X239210Y175365D02*
X237110Y175365D01*
X237110Y176030D02*
X239210Y176030D01*
X239210Y176695D02*
X237110Y176695D01*
D10*
X107569Y78604D03*
X107569Y61604D03*
X281940Y57540D03*
X281940Y74540D03*
D13*
X300186Y97739D03*
X288586Y97739D03*
D10*
X300990Y48650D03*
X300990Y65650D03*
D14*
X227850Y226810D03*
X227850Y238010D03*
X216650Y238010D03*
X216650Y226810D03*
D15*
X232000Y213060D03*
X225500Y213060D03*
X219000Y213060D03*
X212500Y213060D03*
D16*
X202900Y222660D03*
X202900Y229160D03*
X202900Y235660D03*
X202900Y242160D03*
D15*
X212500Y251760D03*
X219000Y251760D03*
X225500Y251760D03*
X232000Y251760D03*
D16*
X241600Y242160D03*
X241600Y235660D03*
X241600Y229160D03*
X241600Y222660D03*
D17*
X415450Y305120D03*
D18*
X415450Y325120D03*
D19*
X415450Y345120D03*
D20*
X415450Y305120D03*
X415450Y325120D03*
X415450Y345120D03*
D21*
X364490Y311150D03*
X359410Y311150D03*
X354330Y311150D03*
X349250Y311150D03*
X349250Y341630D03*
X354330Y341630D03*
X359410Y341630D03*
X364490Y341630D03*
D22*
X356870Y326390D03*
D23*
X350029Y291211D03*
X368029Y291211D03*
X359520Y358140D03*
X341520Y358140D03*
D10*
X383286Y334890D03*
X383286Y317890D03*
D24*
X404260Y256060D03*
X404260Y251060D03*
X404260Y246060D03*
X404260Y241060D03*
X404260Y236060D03*
X404260Y231060D03*
X404260Y221060D03*
X404260Y216060D03*
X404260Y211060D03*
X404260Y206060D03*
X404260Y201060D03*
X404260Y196060D03*
D25*
X417260Y195060D03*
D24*
X417260Y203560D03*
X417260Y208560D03*
X417260Y213560D03*
X417260Y218560D03*
X417260Y223560D03*
X417260Y228560D03*
X417260Y233560D03*
X417260Y238560D03*
X417260Y243560D03*
X417260Y248560D03*
D25*
X417260Y257060D03*
D26*
X381914Y249869D03*
X381914Y238269D03*
X382397Y190161D03*
X382397Y201761D03*
D13*
X331580Y178206D03*
X319980Y178206D03*
X331580Y164541D03*
X319980Y164541D03*
D27*
X314530Y203962D03*
X292530Y213462D03*
X292530Y194462D03*
D26*
X331546Y193412D03*
X331546Y205012D03*
D13*
X280966Y180467D03*
X292566Y180467D03*
X60875Y63246D03*
X72475Y63246D03*
X60875Y76962D03*
X72475Y76962D03*
D28*
X211660Y35250D02*
X211660Y28250D01*
X204660Y28250D01*
X204660Y35250D01*
X211660Y35250D01*
X211660Y31100D02*
X204660Y31100D01*
X204660Y33950D02*
X211660Y33950D01*
X194120Y35250D02*
X194120Y28250D01*
X187120Y28250D01*
X187120Y35250D01*
X194120Y35250D01*
X194120Y31100D02*
X187120Y31100D01*
X187120Y33950D02*
X194120Y33950D01*
X88470Y35250D02*
X88470Y28250D01*
X81470Y28250D01*
X81470Y35250D01*
X88470Y35250D01*
X88470Y31100D02*
X81470Y31100D01*
X81470Y33950D02*
X88470Y33950D01*
X70930Y35250D02*
X70930Y28250D01*
X63930Y28250D01*
X63930Y35250D01*
X70930Y35250D01*
X70930Y31100D02*
X63930Y31100D01*
X63930Y33950D02*
X70930Y33950D01*
D13*
X60875Y49403D03*
X72475Y49403D03*
X175980Y31750D03*
X164380Y31750D03*
D29*
X247650Y387900D03*
X247650Y376900D03*
X247650Y365900D03*
X247650Y354900D03*
X247650Y343900D03*
X247650Y332900D03*
X247650Y321900D03*
X247650Y310900D03*
D30*
X242650Y408900D03*
D31*
X242650Y275400D03*
D32*
X120650Y324900D03*
X120650Y373900D03*
D33*
X119650Y294400D03*
D13*
X301540Y320040D03*
X313140Y320040D03*
D26*
X382270Y171002D03*
X382270Y159402D03*
D34*
X368065Y76209D03*
X345065Y39209D03*
X345065Y76209D03*
X368065Y39209D03*
D26*
X327558Y58818D03*
X327558Y70418D03*
X382880Y76209D03*
X382880Y64609D03*
D35*
X31730Y165980D03*
X67330Y165980D03*
X31730Y175980D03*
X67330Y175980D03*
X31730Y185980D03*
X67330Y185980D03*
X31730Y195980D03*
X67330Y195980D03*
X31730Y205980D03*
X67330Y205980D03*
X31730Y215980D03*
X67330Y215980D03*
X31730Y225980D03*
X67330Y225980D03*
X31730Y235980D03*
X67330Y235980D03*
X31730Y245980D03*
X67330Y245980D03*
X31730Y255980D03*
X67330Y255980D03*
X31730Y265980D03*
X67330Y265980D03*
X31730Y275980D03*
X67330Y275980D03*
M02*
