M48
;GenerationSoftware,Autodesk,EAGLE,9.6.2*%
;CreationDate,2020-06-25T23:19:04Z*%
FMAT,2
ICI,OFF
METRIC,TZ,000.000
T6C0.254
T5C0.600
T4C0.760
T3C0.889
T2C2.375
T1C2.400
%
G90
M71
T1
X3311Y41898
X3311Y2298
X45911Y2298
X45911Y41898
T2
X41529Y14097
X41529Y9017
X44704Y9017
X44704Y14097
T3
X41529Y11557
X46609Y10541
X46609Y12573
T4
X4953Y17098
X4953Y27098
T5
X46196Y18286
X40836Y26926
X40836Y18286
X46196Y26926
T6
X10541Y32258
X10541Y31242
X25019Y4445
X26700Y17648
X32065Y9723
X28194Y34381
X32461Y30450
X31638Y26761
X20970Y10119
X31486Y7071
X23073Y14935
X10881Y14265
X34016Y22007
X18227Y18410
X17038Y23348
X18440Y20909
X23073Y10150
X24323Y10333
X24872Y17648
X24171Y20635
X6797Y10241
X22911Y13599
X32067Y4877
X43117Y15456
X36657Y11486
X17343Y13091
X11643Y11171
X17054Y12040
X4801Y18669
X20103Y13269
X9129Y16612
X8534Y19583
X17069Y19279
X31821Y23028
X32909Y10943
X4801Y20041
X21671Y11552
X36068Y9936
X32992Y24260
X4953Y15850
X5441Y12344
X9449Y12253
X19370Y13106
X21122Y11060
X26182Y22738
X30785Y21610
X29322Y11308
X36807Y9894
X33772Y24689
X10541Y33274
X26975Y22007
X24613Y24841
X2667Y28651
X33452Y25679
X17694Y11506
X6888Y13686
X2697Y11720
X14463Y15904
X7696Y10226
X12192Y16993
X8021Y14752
X7696Y10973
X23134Y8961
X7803Y9495
X17297Y20803
X9754Y19431
X10439Y17069
X8915Y15545
X34114Y10431
X32550Y23294
X35354Y9921
X33211Y23559
X34100Y13955
X29083Y32004
X34635Y13472
X30099Y34417
X35138Y12974
X30950Y34455
X35636Y12472
X33282Y33056
X9246Y23048
X39624Y30607
X39624Y31242
X43434Y32512
X39243Y20701
X42482Y21768
X38227Y21336
X33597Y14986
X33307Y21433
X20193Y7544
X8920Y4943
X19685Y7112
X8890Y6477
X19164Y7518
X8890Y7620
X36149Y11953
X36210Y25872
X42482Y22860
X39662Y22009
X22098Y18547
X26680Y5715
X24409Y5486
X19812Y4420
X16316Y11165
X16307Y8900
X26487Y34666
X32375Y25253
X30714Y17744
X32918Y35306
X27051Y6706
X22128Y19233
X15926Y19431
X14630Y23241
X9982Y24155
X38257Y17963
X37059Y25888
M30